<?xml version="1.0" encoding="UTF-8"?>
<svg width="336px" height="125px" viewBox="0 0 336 125" version="1.1" xmlns="http://www.w3.org/2000/svg" xmlns:xlink="http://www.w3.org/1999/xlink">
    <title>Group 63</title>
    <g id="Page-1" stroke="none" stroke-width="1" fill="none" fill-rule="evenodd">
        <g id="Desktop-Copy-2" transform="translate(-194, -7338)" fill="#FFFFFF">
            <g id="Group-63" transform="translate(194, 7338)">
                <g id="Group-25">
                    <path d="M60.2922803,2.38894811 L60.1185482,2.46691408 C59.9412707,2.54488005 58.381228,3.25011766 57.9486707,3.92700401 C57.5125679,4.61452208 57.725301,6.15612189 57.7713932,6.45735403 L57.7926665,6.59911034 L58.998154,7.50635068 L61.5048589,3.19695904 L60.2922803,2.38894811 Z" id="Fill-1"></path>
                    <path d="M110.482397,28.5887026 C108.858535,27.536162 67.2940353,6.79367086 62.5110864,4.40862105 L62.2309878,4.26686475 L61.6459718,5.18473682 L61.6424262,5.18473682 L61.0467736,6.12387233 L60.6709451,6.7157049 L60.663854,6.71216099 L59.8164673,8.02695071 L59.9866537,8.22540953 C60.3518455,8.51955386 95.4173494,36.0096451 99.6720111,39.0007031 L99.6720111,39.004247 L99.9060175,39.1495472 L100.001747,39.121196 C100.005293,39.1247399 100.023021,39.1247399 100.026566,39.1282838 C100.72504,38.4832926 101.508607,37.7603355 102.093623,37.2110298 C99.2607271,35.0315266 82.0328926,22.3762326 70.6729458,14.0480497 C81.4230578,21.1464966 97.9701464,32.2885421 100.423668,33.7982468 L100.455578,33.826598 C100.877499,33.5005585 101.611428,32.9796041 102.104259,32.6323012 C102.072349,32.5897743 102.043985,32.5472474 101.997893,32.5047205 C101.629156,32.1609614 88.0248746,23.1806996 76.9272986,16.0822527 C86.6633828,21.8907172 98.5409802,29.226606 101.724885,31.104877 C102.086532,30.8142766 102.863007,30.261427 103.409022,29.875141 C103.398386,29.8609654 103.391295,29.8503337 103.373567,29.8361581 C102.926827,29.4605039 85.9649092,19.2965769 74.030583,12.3682375 C86.6740195,19.1264693 104.990338,28.8828469 108.709622,30.7717497 L110.482397,28.5887026 Z" id="Fill-3"></path>
                    <path d="M57.1282301,118.19109 L57.0998657,118.052878 L55.8589227,117.216516 L53.501131,121.504644 L54.7527107,122.245321 L54.9264427,122.160267 C55.1001747,122.078757 56.638944,121.330992 57.0466825,120.65765 C57.461512,119.970132 57.1885045,118.481691 57.1282301,118.19109" id="Fill-5"></path>
                    <path d="M53.5231134,119.930086 L54.0230362,119.104355 L54.0194906,119.104355 L54.214496,118.774772 L54.2180415,118.778316 L55.012245,117.46707 L54.7534198,117.282787 C54.3634091,117.006362 17.8903213,91.7205813 13.5824763,88.9173504 L13.5824763,88.9138065 L13.4938375,88.8322966 C12.7953639,89.2044069 11.6430597,89.813959 10.8311284,90.2285962 C10.8630384,90.2994744 10.905585,90.3668086 10.9835871,90.4376868 C11.4551455,90.8700435 31.3279613,103.730884 44.1805854,112.183104 C33.2886513,105.796982 14.9333314,94.9738885 11.9976148,93.3578666 C11.4657821,93.7760477 10.6857608,94.3537047 10.320569,94.6230416 C10.3276601,94.6265855 10.3312057,94.6336734 10.3382968,94.6407612 C10.7176708,94.956169 25.6976256,103.596216 36.9760248,109.985881 C27.236395,104.864935 14.1816745,97.830278 10.802764,96.0795877 C10.320569,96.4623297 9.56536654,97.0222671 9.13635481,97.3376749 C10.4588455,98.1173345 29.1155372,107.933959 41.0675912,114.047199 C28.2220583,108.029644 8.70025198,98.560323 5.61562222,97.2136381 L3.84639205,99.0812774 C3.88539311,99.2053142 3.9669408,99.3364387 4.13003616,99.4604755 C4.92423969,100.041676 47.669408,119.005126 52.459448,121.088944 L52.7466377,121.21298 L53.526659,119.930086 L53.5231134,119.930086 Z" id="Fill-7"></path>
                    <path d="M110.816743,34.6983993 L110.664284,34.5849942 C110.511826,34.4680453 109.153879,33.4580316 108.317129,33.4190486 C107.508743,33.4190486 106.285528,34.4184306 106.147252,34.5353795 L106.03734,34.6239772 L105.863608,36.1336819 L110.73165,36.165577 L110.816743,34.6983993 Z" id="Fill-9"></path>
                    <path d="M110.471052,37.38539 L110.382413,37.0735262 L109.598846,37.0380871 L109.598846,37.0203675 L108.106169,36.9530333 L108.134533,37.1125091 L107.046049,37.2081946 L107.05314,37.2081946 L106.099387,37.0097358 L106.05684,37.2507215 C105.982384,37.771676 104.344339,50.579358 102.812661,62.6676268 C100.440687,81.4007224 99.8521251,85.9971705 99.7670319,87.2091869 L99.7528497,87.2375382 L102.302101,88.7720502 C102.309192,88.7543307 102.316283,88.740155 102.323374,88.7224355 C102.482924,88.1128834 104.783987,65.3291014 106.305029,50.157633 C106.113569,53.6519259 105.907927,57.5006096 105.705831,61.242976 C104.787533,78.4415595 104.546435,83.6971745 104.539344,84.9658934 C105.032176,85.1962474 105.854744,85.6179724 106.379485,85.8908533 C106.390122,85.8589581 106.400759,85.8306069 106.411395,85.7951678 C106.521307,85.2919329 107.184326,68.6710063 107.726795,55.2644039 C107.701976,57.330502 107.673612,59.439127 107.648793,61.512313 C107.464424,76.6766936 107.40415,82.8005659 107.418332,84.7780663 C107.850889,84.9623495 108.850735,85.4762161 109.453478,85.78808 C109.471206,85.7455531 109.499571,85.710114 109.506662,85.6604993 C109.591755,85.1430888 109.655575,69.1494338 109.69103,55.9590097 C110.290229,70.0921132 111.066704,87.6238241 111.332621,90.8842191 C112.031094,90.9480095 113.116033,91.043695 113.99533,91.0968536 C114.140697,89.9628031 110.84688,42.7721296 110.471052,37.38539" id="Fill-11"></path>
                    <path d="M3.9258124,90.7630175 L4.07118001,90.7701053 C4.22009317,90.8835103 5.54258386,91.7836629 6.29069522,91.7836629 L6.33678739,91.7836629 C7.10617205,91.7836629 8.24429407,90.8161761 8.37193392,90.6956832 L8.47120936,90.6531563 L8.59530366,89.1399078 L3.96481347,89.2568568 L3.9258124,90.7630175 Z" id="Fill-13"></path>
                    <path d="M10.4123988,35.5953623 C10.2883045,36.2261779 9.13600026,53.7295375 8.18224692,68.436754 C8.23897574,66.8349078 8.29925012,65.2224298 8.35597894,63.6312153 C8.97290489,46.2802437 9.1040903,40.131564 9.09699919,38.7848791 C8.6360775,38.5757886 7.83478288,38.1646953 7.31004126,37.8918144 C7.30649571,37.909534 7.29940461,37.9272535 7.29585906,37.9485169 C7.18949251,38.5438934 6.70729751,61.9514031 6.37756123,76.2935972 C6.31019575,72.3315085 6.23219362,67.7988506 6.15773704,63.411493 C5.87409292,47.1307815 5.74290752,40.4540596 5.67199649,38.7246327 C5.00543282,38.3950493 4.16513712,37.9556048 3.94531293,37.8386558 C3.89212966,37.9378852 3.84603749,38.0477464 3.83185529,38.1824148 C3.7503076,38.8167743 4.43459903,62.3873037 4.86361076,76.6373562 C3.87085635,62.4333745 2.93837632,38.8451256 2.54127456,35.1665495 C1.84989203,35.1381982 0.789772143,34.3620825 0.00975082407,34.3124678 C0.00975082407,34.3230995 0.00620527262,34.3301873 0.00265972117,34.340819 C-0.114343477,35.3508327 3.66521437,82.7789481 4.17931933,88.0239313 L4.20768374,88.3393391 L5.21816591,88.3641464 L5.53371998,88.3712342 L5.62944987,88.3712342 L6.3066502,88.3889538 L7.43413556,88.4137611 L8.34534228,88.4350246 L8.3807978,88.1054412 C8.43752662,87.5773989 9.6146497,74.457853 10.7137707,62.1144229 C12.4191809,42.9879535 12.8411015,38.2639247 12.8871937,37.0341888 L12.9155581,36.8888886 C12.3269966,36.5841125 11.2491489,36.027719 10.4123988,35.5953623" id="Fill-15"></path>
                    <path d="M108.325639,91.9782234 C107.942719,91.2588102 106.489043,90.6917849 106.201853,90.5819238 L106.070668,90.5323091 L104.673721,91.1383173 L107.191062,95.4370772 L108.502916,94.7743665 L108.524189,94.5829955 C108.541917,94.3916245 108.701467,92.6870049 108.325639,91.9782234" id="Fill-17"></path>
                    <path d="M105.63421,95.0185417 L104.971192,93.7710863 L104.786824,93.4273272 L104.591818,93.0623047 L104.513816,92.9134606 L104.052894,92.0487472 L103.755068,92.1656961 C103.272873,92.360611 91.4130036,97.1803254 79.6985016,101.950425 C73.8306139,104.339019 67.9946362,106.716981 63.6229713,108.50311 C61.435366,109.396175 59.6164981,110.140395 58.3436452,110.66135 C57.5281683,110.998021 57.0105178,111.210656 56.6807815,111.363044 L57.2587064,115.222359 C57.2799797,115.215271 57.2977075,115.218815 57.3189808,115.208183 C64.9667353,111.827295 66.8175131,110.813738 68.7782031,109.743478 C71.5933709,108.208966 74.7560028,106.483083 95.6853931,97.3716964 C91.9129263,99.2960382 87.3178916,101.638561 82.793768,103.952733 C77.5888985,106.614207 72.4088478,109.26505 68.53356,111.253182 C65.0128275,113.060575 61.9069244,114.566736 61.1269031,115.013268 C61.3502728,115.523591 61.6480991,116.25718 61.8821055,116.841925 C64.9312798,115.307413 78.5993806,108.223141 89.069394,102.694646 C87.2576173,103.715291 85.4068394,104.764288 83.584426,105.795565 C78.4575586,108.694481 73.3626011,111.582766 69.5475878,113.748093 C66.2005872,115.651172 63.1159574,117.231755 62.3182084,117.727902 C62.5167592,118.305559 62.77913,119.145465 62.9280432,119.638068 C64.3072627,118.929286 78.7837493,110.696789 89.8565065,104.236245 C87.4242582,105.749494 84.8927344,107.326533 82.414394,108.871677 C76.8868793,112.316355 71.3841834,115.757489 67.2677982,118.337454 C62.84295,121.108789 61.190723,122.154242 60.5879792,122.607862 L61.7651023,125 C61.81474,124.989368 61.8608322,124.992912 61.9069244,124.975193 C62.8394044,124.617258 101.478824,99.0692281 105.878853,96.1561361 L106.14477,95.9789407 L105.63421,95.0185417 Z" id="Fill-19"></path>
                    <path d="M5.17916484,28.9278545 L5.15434598,29.1156816 C5.12598157,29.3176844 4.88842962,31.096726 5.23234811,31.8515783 C5.58690326,32.6383258 7.11858148,33.3364756 7.2923135,33.4108977 L7.43059001,33.474688 L8.84171949,32.9041189 L6.52647439,28.2899512 L5.17916484,28.9278545 Z" id="Fill-21"></path>
                    <path d="M57.2608338,11.237731 C54.6974001,12.19813 32.9064408,21.2209187 19.3907987,26.8238366 C22.9824423,25.1014975 27.1626475,23.0956458 31.2861238,21.1110576 C36.6221788,18.5452685 41.9263237,15.9901111 45.8973414,14.0728571 C49.6875359,12.2406568 52.7969845,10.7132327 53.5415503,10.2985955 C53.4280926,9.69613119 53.2898161,8.84913727 53.1940863,8.22540953 C50.9887532,9.22833538 35.1436838,17.1028981 23.5107295,22.8936431 C28.5915047,20.1683781 34.2502048,17.1277054 39.1927036,14.4733186 C44.7344005,11.4999802 50.7334735,8.32818285 52.2864251,7.49536457 C52.2190596,6.86100511 52.1410575,5.88997443 52.1020564,5.3654761 C52.0453276,5.37256392 51.9885988,5.37256392 51.9318699,5.39382736 C51.4106739,5.57102274 35.5124212,14.2748598 23.5745494,20.8807036 C26.2691685,19.2859451 29.0985186,17.6096769 31.8569576,15.9688476 C37.5404766,12.5950476 43.1991767,9.23187929 47.4325651,6.70507317 C51.7758657,4.11447672 53.520277,3.07256789 54.2116595,2.59059645 C53.8464677,1.75069035 53.4387293,0.818642655 53.0558097,0 C51.8113212,0.528042232 12.3245147,25.4558883 7.80748213,28.30519 L7.54865687,28.4717536 L8.14785507,29.7971751 L8.61941341,30.83554 L8.79669098,31.2253698 L9.45616355,32.6819159 L9.76462653,32.5685108 C10.2680948,32.3806837 22.5995228,27.6743744 34.0481084,23.2941046 C39.9691793,21.0295477 45.8583403,18.7756225 50.2690063,17.0816346 C52.4743393,16.2346407 54.3073894,15.5294031 55.590879,15.0297121 C56.5800879,14.650514 57.1367395,14.4343356 57.4522935,14.2854915 L57.2608338,11.237731 Z" id="Fill-23"></path>
                </g>
                <polygon id="Fill-26" points="34.4376423 69.5136924 34.4376423 84 30 84 30 41 34.4376423 41 34.4376423 61.398941 39.5623577 53.9530074 39.5623577 41 44 41 44 55.351121 37.193018 65.3833871 44 75.486804 44 84 39.5623577 84 39.5623577 76.9631836"></polygon>
                <polygon id="Fill-27" points="48 84 52 84 52 41 48 41"></polygon>
                <path d="M70,77.2152077 C70,80.9046831 66.7869433,84 62.9610324,84 L56,84 L56,41 L62.9610324,41 C66.7869433,41 70,44.0241602 70,47.7100778 L70,77.2152077 Z M62.9610324,45.2765183 L60.4352227,45.2765183 L60.4352227,79.7234817 L62.9610324,79.7234817 C64.2611336,79.7234817 65.5612348,78.4711236 65.5612348,77.2152077 L65.5612348,47.7100778 C65.5612348,46.5288764 64.2611336,45.2765183 62.9610324,45.2765183 L62.9610324,45.2765183 Z" id="Fill-28"></path>
                <polygon id="Fill-30" points="78.2345387 62.3808224 78.2345387 79.720278 84 79.720278 84 84 74 84 74 41 84 41 84 45.2761645 78.2345387 45.2761645 78.2345387 58.0299495 84 58.0299495 84 62.3808224"></polygon>
                <polygon id="Fill-31" points="138 61 138 42 141.254213 42 141.254213 51.2109091 148.741752 42 152.384049 42 146.477332 49.4109091 153 61 149.539283 61 144.227154 51.7345455 141.254213 55.2981818 141.254213 61"></polygon>
                <path d="M155,45.0241333 L158,45.0241333 L158,42 L155,42 L155,45.0241333 Z M155.051665,61 L157.95178,61 L157.95178,47.4041371 L155.051665,47.4041371 L155.051665,61 Z" id="Fill-32"></path>
                <path d="M162.010657,60.6624943 L162.010657,47.4225306 L164.99452,47.4225306 L164.99452,50.2930795 C165.207147,49.6339164 165.511912,49.0704383 165.908815,48.606189 C166.305719,48.1419398 166.773498,47.7840071 167.312152,47.535935 C167.847263,47.2914068 168.435531,47.1638268 169.066324,47.1638268 C169.218706,47.1638268 169.367545,47.1744585 169.51284,47.188634 C169.658135,47.2098974 169.767992,47.2382485 169.835324,47.2807751 L169.835324,50.2647284 C169.739642,50.2222017 169.619153,50.1903068 169.470315,50.1761312 C169.321476,50.1584118 169.190356,50.151324 169.076955,50.151324 C168.439074,50.0981657 167.87207,50.1265168 167.383028,50.2257456 C166.890442,50.3285184 166.479364,50.5021689 166.139161,50.7431532 C165.802502,50.9876814 165.54735,51.2959997 165.377248,51.6681078 C165.207147,52.040216 165.122096,52.4690264 165.122096,52.9687146 L165.122096,60.6624943 L162.010657,60.6624943 Z" id="Fill-33"></path>
                <path d="M172.64944,45.1030562 L175.877824,45.1030562 L175.877824,42.1580857 L172.64944,42.1580857 L172.64944,45.1030562 Z M171.742232,64.9133874 C171.033476,64.9133874 170.473559,64.7964391 170.066024,64.5660864 L170.051849,62.4929122 L171.217753,62.4149467 C171.774126,62.3476128 172.160398,62.1952257 172.383656,61.9506974 C172.603371,61.7061692 172.716772,61.3305171 172.716772,60.8166534 L172.716772,47.4207587 L175.828211,47.4207587 L175.828211,60.8804434 C175.828211,62.2306645 175.512815,63.2371286 174.885565,63.9069233 C174.258316,64.5767181 173.209357,64.9133874 171.742232,64.9133874 L171.742232,64.9133874 Z" id="Fill-35"></path>
                <path d="M184.240083,58.8062061 C184.622811,58.8062061 185.005539,58.7353283 185.38118,58.5935728 C185.753277,58.4518173 186.09348,58.2604474 186.398245,58.0159191 C186.699466,57.7749348 186.943987,57.5020555 187.128264,57.2043689 C187.308997,56.9066824 187.404679,56.5948203 187.41531,56.2687826 L187.41531,54.1814329 L185.792259,54.209784 C184.98782,54.2168717 184.286152,54.301925 183.683709,54.4649439 C183.081266,54.6279627 182.613487,54.8866665 182.280372,55.2410552 C181.947257,55.595444 181.780699,56.066781 181.780699,56.6550663 C181.780699,57.328405 182.018132,57.8564442 182.485911,58.2356402 C182.957234,58.61838 183.538414,58.8062061 184.240083,58.8062061 M183.230105,60.918363 C182.383142,60.918363 181.624773,60.762432 180.954998,60.4505699 C180.285224,60.1387078 179.760744,59.6921779 179.38156,59.1074365 C179.002375,58.5226951 178.811011,57.8103737 178.811011,56.9740162 C178.811011,55.5174785 179.339034,54.4117856 180.391537,53.6711131 C181.447584,52.9304406 183.127336,52.540613 185.430793,52.5051741 L187.41531,52.4520158 L187.41531,51.5589561 C187.41531,50.8572664 187.209771,50.3079638 186.795148,49.9145923 C186.38407,49.5176769 185.739102,49.3227631 184.867332,49.3298509 C184.21882,49.3369386 183.627009,49.4928697 183.102529,49.7870124 C182.570962,50.0776111 182.220128,50.5737554 182.050026,51.2648134 L179.399279,51.2648134 C179.452435,50.3575782 179.714675,49.5991863 180.189542,48.9896377 C180.660864,48.380089 181.31292,47.9229275 182.138621,47.6216971 C182.967866,47.3169228 183.924686,47.1645356 185.005539,47.1645356 C186.270669,47.1645356 187.298365,47.3310983 188.095716,47.6642237 C188.889523,47.9973492 189.474246,48.475774 189.849887,49.106586 C190.221984,49.733854 190.413348,50.492246 190.413348,51.3782178 L190.413348,60.6632031 L187.787407,60.6632031 L187.532255,58.2817107 C187.060932,59.2775431 186.462033,59.9686012 185.732014,60.3477971 C185.001995,60.730537 184.169207,60.918363 183.230105,60.918363" id="Fill-37"></path>
                <path d="M197.556192,60.8542186 C196.702141,60.8542186 196.018191,60.747902 195.507887,60.5352688 C194.994039,60.3190916 194.611311,60.0355806 194.356158,59.677648 C194.101006,59.3161715 193.930905,58.9157122 193.856485,58.4656385 C193.778522,58.0155648 193.739541,57.5584033 193.739541,57.0870662 L193.739541,41.6357167 L196.790736,41.6357167 L196.790736,56.7291336 C196.790736,57.3032434 196.90768,57.7462293 197.138026,58.0651792 C197.375459,58.3770413 197.754644,58.5613234 198.286211,58.6144817 L198.952442,58.639289 L198.952442,60.5990587 C198.722096,60.6663926 198.488206,60.7266387 198.247229,60.7762531 C198.009796,60.8294114 197.77945,60.8542186 197.556192,60.8542186" id="Fill-38"></path>
                <path d="M205.289784,60.8542186 C204.435733,60.8542186 203.751783,60.747902 203.241479,60.5352688 C202.727631,60.3190916 202.344903,60.0355806 202.08975,59.677648 C201.834598,59.3161715 201.664497,58.9157122 201.590077,58.4656385 C201.512114,58.0155648 201.473133,57.5584033 201.473133,57.0870662 L201.473133,41.6357167 L204.524328,41.6357167 L204.524328,56.7291336 C204.524328,57.3032434 204.641272,57.7462293 204.871618,58.0651792 C205.109051,58.3770413 205.488236,58.5613234 206.019803,58.6144817 L206.686034,58.639289 L206.686034,60.5990587 C206.455688,60.6663926 206.221798,60.7266387 205.980821,60.7762531 C205.743388,60.8294114 205.513042,60.8542186 205.289784,60.8542186" id="Fill-39"></path>
                <path d="M209.511844,60.6607224 L212.495707,60.6607224 L212.495707,47.4207587 L209.511844,47.4207587 L209.511844,60.6607224 Z M209.462231,45.1030562 L212.54532,45.1030562 L212.54532,42.1580857 L209.462231,42.1580857 L209.462231,45.1030562 Z" id="Fill-40"></path>
                <path d="M221.142886,60.9180086 C220.221503,60.9180086 219.346189,60.7691653 218.524032,60.4750227 C217.698331,60.18088 217.007294,59.7201746 216.450921,59.0858188 C215.891003,58.4550068 215.536625,57.6399127 215.394874,56.6405364 L218.134216,56.6405364 C218.251161,57.126049 218.463788,57.5265083 218.768553,57.8348265 C219.069775,58.1396008 219.427696,58.3628657 219.842319,58.5046212 C220.256941,58.6463767 220.685738,58.7172545 221.128711,58.7172545 C221.922518,58.7172545 222.563942,58.5790429 223.04944,58.3061635 C223.534938,58.0332842 223.779459,57.6115616 223.779459,57.0374518 C223.779459,56.6192731 223.648339,56.2896915 223.375468,56.0416194 C223.10614,55.7900034 222.670255,55.6057213 222.064269,55.4781413 L219.551729,54.9004876 C218.42835,54.6524155 217.52823,54.2413246 216.851368,53.6707587 C216.17805,53.0966489 215.834303,52.2921864 215.827215,51.2502835 C215.820128,50.4670844 216.015036,49.7653946 216.415483,49.1487582 C216.819474,48.5356657 217.414829,48.0501531 218.208636,47.6957643 C219.002443,47.3413756 219.980526,47.1641812 221.142886,47.1641812 C222.687974,47.1641812 223.928298,47.5079383 224.860312,48.1954525 C225.79587,48.8829667 226.27428,49.8646235 226.30263,51.1368791 L223.651883,51.1368791 C223.556201,50.5627693 223.286873,50.1162395 222.847444,49.7972896 C222.400928,49.4783398 221.823292,49.3153209 221.114536,49.3153209 C220.380973,49.3153209 219.782074,49.4570764 219.310752,49.7370435 C218.842973,50.0205545 218.605539,50.4529088 218.605539,51.0341064 C218.605539,51.4345657 218.782728,51.7499716 219.14065,51.9803243 C219.491484,52.210677 220.030139,52.4055908 220.756614,52.5686097 L223.141578,53.1462633 C223.821984,53.3163699 224.381901,53.5467226 224.817786,53.8373214 C225.253671,54.1279202 225.590331,54.44687 225.834851,54.7906271 C226.079372,55.1379281 226.24593,55.4923169 226.3487,55.8537934 C226.444382,56.2152699 226.493995,56.5519392 226.493995,56.8567135 C226.493995,57.7143343 226.27428,58.4408313 225.834851,59.0432921 C225.395423,59.645753 224.778805,60.1064584 223.97791,60.432496 C223.18056,60.7585337 222.23437,60.9180086 221.142886,60.9180086" id="Fill-41"></path>
                <path d="M234.189668,60.9180086 C233.541156,60.9180086 232.913907,60.8223237 232.315008,60.6274098 C231.712566,60.4360399 231.170367,60.1560728 230.695501,59.7839646 C230.21709,59.4154003 229.834362,58.9546949 229.554403,58.4089363 C229.270901,57.8596337 229.132693,57.2288217 229.132693,56.4987809 L229.132693,47.4193411 L232.254764,47.4193411 L232.254764,56.1408483 C232.254764,56.8567135 232.48511,57.4485428 232.942257,57.9092481 C233.399405,58.3699535 234.086899,58.6003062 235.008281,58.6003062 C235.844614,58.6003062 236.514388,58.3805852 237.017605,57.9411431 C237.524366,57.5017011 237.775974,56.8673452 237.775974,56.0416194 L237.775974,47.4193411 L240.873238,47.4193411 L240.873238,60.6628487 L238.481186,60.6628487 L238.133896,58.0758108 C237.970882,58.7987639 237.68738,59.3693298 237.283389,59.7839646 C236.875854,60.1985995 236.400987,60.4927421 235.858789,60.6628487 C235.31659,60.8329553 234.763761,60.9180086 234.189668,60.9180086" id="Fill-42"></path>
                <path d="M249.25924,60.9180086 C248.610728,60.9180086 247.983479,60.8223237 247.38458,60.6274098 C246.782138,60.4360399 246.239939,60.1560728 245.765073,59.7839646 C245.286662,59.4154003 244.903934,58.9546949 244.623975,58.4089363 C244.340473,57.8596337 244.202265,57.2288217 244.202265,56.4987809 L244.202265,47.4193411 L247.324336,47.4193411 L247.324336,56.1408483 C247.324336,56.8567135 247.554682,57.4485428 248.011829,57.9092481 C248.468977,58.3699535 249.156471,58.6003062 250.077853,58.6003062 C250.914186,58.6003062 251.58396,58.3805852 252.087177,57.9411431 C252.593938,57.5017011 252.845546,56.8673452 252.845546,56.0416194 L252.845546,47.4193411 L255.94281,47.4193411 L255.94281,60.6628487 L253.550758,60.6628487 L253.203468,58.0758108 C253.040454,58.7987639 252.756952,59.3693298 252.352961,59.7839646 C251.945426,60.1985995 251.470559,60.4927421 250.928361,60.6628487 C250.386162,60.8329553 249.833333,60.9180086 249.25924,60.9180086" id="Fill-43"></path>
                <path d="M265.020913,58.6254678 C266.137203,58.6254678 266.955817,58.2604474 267.473209,57.5304066 C267.987057,56.8039096 268.245753,55.5919001 268.245753,53.9014658 C268.238665,52.9375284 268.12172,52.1259781 267.894918,51.466815 C267.668117,50.8111958 267.32437,50.3150516 266.863678,49.9819262 C266.402987,49.6488007 265.800544,49.482238 265.059894,49.482238 C264.120792,49.482238 263.348248,49.829539 262.749349,50.5205971 C262.143363,51.2116551 261.845685,52.3386114 261.845685,53.9014658 C261.845685,55.4536885 262.1221,56.6302591 262.678474,57.4276338 C263.231303,58.2285524 264.010935,58.6254678 265.020913,58.6254678 M264.379488,60.918363 C262.632404,60.918363 261.253874,60.319446 260.258072,59.1109804 C259.258726,57.9096025 258.759052,56.1979049 258.759052,53.9794313 C258.759052,52.5937713 258.961048,51.3959373 259.365039,50.3717538 C259.772574,49.3511142 260.371473,48.5643712 261.165279,48.0044369 C261.959086,47.4445027 262.93717,47.1645356 264.09953,47.1645356 C264.645272,47.1645356 265.144945,47.2318695 265.591461,47.3665372 C266.037978,47.4941171 266.438425,47.6677676 266.789259,47.8804009 C267.140093,48.096578 267.434227,48.3304746 267.678748,48.5891784 C267.919725,48.8443383 268.111089,49.0994982 268.245753,49.3546581 L268.245753,41.6360711 L271.385542,41.6360711 L271.385542,60.6632031 L269.082085,60.6632031 L268.734794,57.9485853 C268.621393,58.2639913 268.465467,58.5935728 268.267015,58.9408738 C268.06502,59.2881748 267.795693,59.6106685 267.459033,59.9048112 C267.122374,60.2060416 266.700664,60.447026 266.197448,60.6383959 C265.694231,60.822678 265.088244,60.918363 264.379488,60.918363" id="Fill-44"></path>
                <path d="M277.414576,52.8258959 L283.637454,52.8258959 C283.637454,52.1879961 283.524053,51.6067986 283.297251,51.0929349 C283.073993,50.5755273 282.73379,50.1644364 282.280186,49.8596621 C281.826583,49.5584316 281.256034,49.4060445 280.564997,49.4060445 C279.881047,49.4060445 279.303411,49.5726072 278.835632,49.9057326 C278.367853,50.238858 278.013475,50.6676684 277.772498,51.1921638 C277.535064,51.7166591 277.414576,52.2624178 277.414576,52.8258959 M280.756361,60.9165911 C279.484144,60.9165911 278.364309,60.6472556 277.396857,60.1050408 C276.425861,59.5663699 275.671036,58.7902586 275.128838,57.7802506 C274.586639,56.7737866 274.317312,55.5759526 274.317312,54.1832048 C274.317312,52.8258959 274.561833,51.6209741 275.050874,50.5648957 C275.54346,49.5123611 276.25576,48.6795475 277.187774,48.0735428 C278.126876,47.467538 279.253798,47.1663076 280.575628,47.1663076 C281.883283,47.1663076 282.981855,47.4427308 283.871344,47.9991211 C284.757289,48.5519676 285.430607,49.3280789 285.891299,50.3203674 C286.35199,51.3161998 286.582336,52.4785949 286.582336,53.8110966 L286.582336,54.7608585 L277.428751,54.7608585 C277.421663,55.5086187 277.538608,56.1784135 277.786673,56.759611 C278.034737,57.3372647 278.399747,57.7908823 278.888789,58.1204638 C279.374286,58.4500454 279.976729,58.6130642 280.692573,58.6130642 C281.426135,58.6130642 282.064016,58.4500454 282.609758,58.1204638 C283.148413,57.7908823 283.509878,57.2911941 283.690611,56.6178555 L286.532723,56.6178555 C286.38034,57.5392663 286.011787,58.3189215 285.437695,58.9603652 C284.863602,59.6018088 284.161934,60.0873214 283.336233,60.4169029 C282.514076,60.7500284 281.652937,60.9165911 280.756361,60.9165911" id="Fill-45"></path>
                <path d="M289.552378,60.6624943 L289.552378,47.4225306 L292.60003,47.4225306 L292.60003,49.3149665 C292.802025,48.9747533 293.085527,48.6451718 293.436362,48.3297658 C293.794284,48.0143598 294.230169,47.7591999 294.751104,47.5642861 C295.27204,47.3658284 295.88157,47.2665996 296.583239,47.2665996 C297.401852,47.2665996 298.163765,47.4296184 298.865433,47.755656 C299.574189,48.0781498 300.141194,48.5884696 300.569992,49.2759838 C301.002333,49.9705857 301.218504,50.8601015 301.218504,51.9551627 L301.218504,60.6624943 L298.092889,60.6624943 L298.092889,52.3272709 C298.092889,51.4554746 297.851912,50.8069432 297.373502,50.3852206 C296.898635,49.963498 296.296193,49.7508647 295.569718,49.7508647 C295.073588,49.7508647 294.605809,49.835918 294.162837,50.0024807 C293.71632,50.1690434 293.358399,50.4206594 293.07844,50.7573288 C292.802025,51.0939981 292.663818,51.5157207 292.663818,52.0189527 L292.663818,60.6624943 L289.552378,60.6624943 Z" id="Fill-46"></path>
                <path d="M139.845373,83.1243621 L146.068252,83.1243621 C146.068252,82.4864623 145.954851,81.9052648 145.728049,81.3914011 C145.50479,80.8739935 145.164588,80.4629026 144.710984,80.1581283 C144.25738,79.8568978 143.686831,79.7080545 142.995794,79.7080545 C142.311844,79.7080545 141.737752,79.8710734 141.266429,80.2041988 C140.79865,80.5373242 140.444272,80.9661346 140.203295,81.49063 C139.965862,82.0151253 139.845373,82.560884 139.845373,83.1243621 M143.187158,91.2150573 C141.914941,91.2150573 140.795106,90.9457218 139.827654,90.403507 C138.856658,89.8648361 138.101833,89.0887248 137.559635,88.0787168 C137.017436,87.0722528 136.748109,85.8744188 136.748109,84.481671 C136.748109,83.1243621 136.99263,81.9194403 137.481671,80.8633619 C137.974257,79.8108273 138.686557,78.9780137 139.622115,78.372009 C140.557673,77.7660042 141.684595,77.4647738 143.006425,77.4647738 C144.31408,77.4647738 145.412652,77.741197 146.298597,78.2975873 C147.188086,78.8504338 147.861404,79.6265451 148.322096,80.6188336 C148.782787,81.614666 149.013133,82.7770611 149.013133,84.1095628 L149.013133,85.0593247 L139.859548,85.0593247 C139.848917,85.8070849 139.969405,86.4768797 140.21747,87.0580772 C140.465535,87.6357309 140.830544,88.0893485 141.319586,88.41893 C141.805084,88.7485116 142.407526,88.9115304 143.12337,88.9115304 C143.856933,88.9115304 144.494813,88.7485116 145.037011,88.41893 C145.57921,88.0893485 145.940675,87.5896604 146.121408,86.9163217 L148.96352,86.9163217 C148.807594,87.8377325 148.446128,88.6173877 147.868492,89.2588314 C147.290856,89.900275 146.592731,90.3857876 145.76703,90.7153691 C144.944873,91.0484946 144.083734,91.2150573 143.187158,91.2150573" id="Fill-47"></path>
                <path d="M157.542304,88.9242884 C158.658595,88.9242884 159.477208,88.559268 159.9946,87.8292271 C160.508448,87.1027302 160.767144,85.8907207 160.767144,84.2002863 C160.760057,83.2363489 160.643112,82.4247987 160.41631,81.7656356 C160.189508,81.1100164 159.845761,80.6138722 159.38507,80.2807468 C158.924378,79.9476213 158.321936,79.7810586 157.581285,79.7810586 C156.642184,79.7810586 155.86964,80.1283596 155.270741,80.8194177 C154.668298,81.5104757 154.367077,82.637432 154.367077,84.2002863 C154.367077,85.7525091 154.643491,86.9290797 155.199865,87.7264544 C155.752695,88.527373 156.53587,88.9242884 157.542304,88.9242884 M156.90088,91.2171836 C155.150252,91.2171836 153.775265,90.6182666 152.779463,89.409801 C151.780117,88.2084231 151.280444,86.4967254 151.280444,84.2782519 C151.280444,82.8925919 151.482439,81.6947579 151.889974,80.6705744 C152.293965,79.6499348 152.892864,78.8631918 153.686671,78.3032575 C154.480478,77.7433233 155.458561,77.4633562 156.620921,77.4633562 C157.166663,77.4633562 157.662792,77.5306901 158.112853,77.6653578 C158.559369,77.7929377 158.959816,77.9665882 159.307107,78.1792215 C159.657941,78.3953986 159.955618,78.6292952 160.200139,78.887999 C160.441116,79.1431589 160.63248,79.3983188 160.767144,79.6534787 L160.767144,71.9348917 L163.906934,71.9348917 L163.906934,90.9620237 L161.599932,90.9620237 L161.256186,88.2474059 C161.142785,88.5628119 160.986858,88.8923934 160.788407,89.2396944 C160.586411,89.5869954 160.317084,89.9094891 159.980425,90.2036318 C159.643766,90.5048622 159.222056,90.7458466 158.718839,90.9372165 C158.215622,91.1214986 157.609636,91.2171836 156.90088,91.2171836" id="Fill-48"></path>
                <path d="M167.592465,90.9609605 L170.576328,90.9609605 L170.576328,77.7209968 L167.592465,77.7209968 L167.592465,90.9609605 Z M167.542852,75.3997505 L170.629485,75.3997505 L170.629485,72.45478 L167.542852,72.45478 L167.542852,75.3997505 Z" id="Fill-49"></path>
                <path d="M179.218546,91.2168292 C178.297163,91.2168292 177.425393,91.0679859 176.599692,90.7738433 C175.777535,90.4797006 175.086498,90.0189952 174.52658,89.3846394 C173.966663,88.7538274 173.615829,87.9422772 173.470534,86.939357 L176.209876,86.939357 C176.330365,87.4248696 176.539448,87.8253289 176.844213,88.1336471 C177.145434,88.4384214 177.5069,88.6616863 177.917978,88.8034418 C178.332601,88.9451973 178.761398,89.0160751 179.207914,89.0160751 C180.001721,89.0160751 180.639602,88.8778635 181.128643,88.6049841 C181.614141,88.3321048 181.858662,87.9103822 181.858662,87.3362724 C181.858662,86.9180937 181.723999,86.5885121 181.454671,86.34044 C181.185344,86.088824 180.745915,85.9045418 180.139929,85.7769619 L177.630932,85.1993082 C176.50401,84.9512361 175.60389,84.5401452 174.930571,83.9695793 C174.257253,83.3954695 173.913506,82.591007 173.906419,81.5491041 C173.895788,80.765905 174.094239,80.0642152 174.494686,79.4475788 C174.895134,78.8344863 175.490489,78.3489737 176.287839,77.9945849 C177.081646,77.6401962 178.05973,77.4630018 179.218546,77.4630018 C180.763634,77.4630018 182.003957,77.8067589 182.939515,78.4942731 C183.87153,79.1817873 184.353484,80.1634441 184.37829,81.4356997 L181.731086,81.4356997 C181.635404,80.8615899 181.366077,80.4150601 180.923104,80.0961102 C180.480132,79.7771604 179.902495,79.6141415 179.193739,79.6141415 C178.460177,79.6141415 177.857734,79.755897 177.386411,80.0358641 C176.918632,80.3193751 176.684743,80.7517294 176.684743,81.332927 C176.684743,81.7333863 176.861932,82.0487922 177.21631,82.2791449 C177.570688,82.5094976 178.109343,82.7044114 178.835817,82.8674303 L181.217238,83.4450839 C181.901188,83.6151905 182.457561,83.8455432 182.893446,84.136142 C183.332875,84.4267408 183.669534,84.7456906 183.910511,85.0894477 C184.155032,85.4367487 184.325133,85.7911374 184.424359,86.152614 C184.523585,86.5140905 184.573198,86.8507598 184.573198,87.1555341 C184.573198,88.0131549 184.34994,88.7396518 183.910511,89.3421127 C183.474626,89.9445736 182.854465,90.405279 182.057114,90.7313166 C181.259763,91.0573543 180.313574,91.2168292 179.218546,91.2168292" id="Fill-50"></path>
                <path d="M192.54883,91.0637333 C191.499871,91.0637333 190.688346,90.9255217 190.110709,90.6455545 C189.533073,90.3691313 189.132626,89.9757598 188.912912,89.4618961 C188.693197,88.9515763 188.579796,88.3420277 188.579796,87.6332502 L188.579796,79.921751 L186.428721,79.921751 L186.428721,77.7209968 L188.668391,77.7209968 L189.451566,73.7908256 L191.691235,73.7908256 L191.691235,77.7068213 L194.650292,77.7068213 L194.650292,79.921751 L191.691235,79.921751 L191.705411,87.5163019 C191.705411,87.9096734 191.747936,88.1967283 191.83653,88.3810104 C191.928669,88.5652926 192.073964,88.6857848 192.272415,88.7389431 C192.474411,88.7956453 192.740194,88.8204525 193.07331,88.8204525 L194.71408,88.8204525 L194.71408,90.7943978 C194.533347,90.8652756 194.271108,90.9255217 193.927361,90.97868 C193.58007,91.0353822 193.122923,91.0637333 192.54883,91.0637333" id="Fill-51"></path>
                <path d="M204.422621,75.1460082 L204.447428,72.4455659 L207.417116,72.4455659 L207.378134,75.1460082 L204.422621,75.1460082 Z M202.360141,89.105381 C202.742869,89.105381 203.125597,89.0309594 203.501238,88.8927478 C203.876879,88.7509923 204.213538,88.5596224 204.518303,88.3150941 C204.819525,88.0741098 205.064045,87.8012304 205.248322,87.5035439 C205.432599,87.2023134 205.524737,86.8939952 205.535368,86.5679576 L205.535368,84.4806078 L203.908773,84.5089589 C203.107879,84.5160467 202.40621,84.6011 201.803767,84.7641188 C201.201325,84.9235938 200.733546,85.1822976 200.40043,85.5402302 C200.067315,85.8910751 199.900757,86.365956 199.900757,86.9542413 C199.900757,87.62758 200.134647,88.1556192 200.60597,88.5348152 C201.073749,88.9140111 201.662016,89.105381 202.360141,89.105381 L202.360141,89.105381 Z M198.904955,75.1460082 L198.929761,72.4455659 L201.899449,72.4455659 L201.860468,75.1460082 L198.904955,75.1460082 Z M201.350163,91.217538 C200.5032,91.217538 199.744831,91.0616069 199.075056,90.7497448 C198.405282,90.4378827 197.880802,89.9913529 197.501618,89.4030676 C197.11889,88.82187 196.931069,88.1095487 196.931069,87.2731912 C196.931069,85.8131095 197.459093,84.7109605 198.511595,83.970288 C199.564098,83.2260717 201.247394,82.8397879 203.550851,82.8043491 L205.535368,82.7511907 L205.535368,81.8581311 C205.535368,81.1564414 205.329829,80.6071388 204.915207,80.2137673 C204.500584,79.813308 203.85916,79.6183942 202.98739,79.6290259 C202.338878,79.6361136 201.750611,79.7885008 201.222587,80.0826435 C200.69102,80.3767861 200.340186,80.8693865 200.170085,81.5639884 L197.519337,81.5639884 C197.56895,80.6567532 197.834733,79.8983613 198.306056,79.2888127 C198.780923,78.679264 199.432978,78.2221025 200.258679,77.9208721 C201.087924,77.6160978 202.044744,77.4637106 203.129141,77.4637106 C204.390727,77.4637106 205.421967,77.6302733 206.215774,77.9633987 C207.006037,78.2965242 207.594305,78.774949 207.969945,79.4022171 C208.342042,80.033029 208.533406,80.791421 208.533406,81.6773928 L208.533406,90.9623781 L205.907465,90.9623781 L205.652313,88.5808857 C205.18099,89.5767181 204.582091,90.2677761 203.852072,90.6469721 C203.122054,91.0261681 202.289265,91.217538 201.350163,91.217538 L201.350163,91.217538 Z" id="Fill-52"></path>
                <path d="M211.861725,90.9609605 L211.861725,77.7209968 L214.895201,77.7209968 L214.895201,79.6134328 C215.277929,79.0322352 215.802409,78.5325471 216.465096,78.1072806 C217.127783,77.6784702 217.971203,77.462293 218.995355,77.462293 C219.463134,77.462293 219.941544,77.5438024 220.419955,77.7068213 C220.905453,77.8698401 221.351969,78.1072806 221.766591,78.4262304 C222.181214,78.7380925 222.510785,79.1350079 222.75885,79.6028011 C223.177016,78.9790769 223.73339,78.4652132 224.431514,78.0682978 C225.126095,77.6642946 225.909271,77.462293 226.777497,77.462293 C227.255907,77.462293 227.752037,77.5402586 228.255253,77.6961896 C228.765558,77.8485768 229.233337,78.1072806 229.658591,78.4652132 C230.087388,78.8231458 230.431135,79.3122023 230.696918,79.9288387 C230.959158,80.5490191 231.093822,81.3251304 231.093822,82.2536289 L231.093822,90.9609605 L227.982382,90.9609605 L227.982382,82.6257371 C227.982382,81.9701179 227.868981,81.4527104 227.638636,81.0770583 C227.40829,80.6978623 227.110612,80.4356147 226.749147,80.2761397 C226.384137,80.1166648 225.997865,80.0386993 225.590331,80.0386993 C225.221777,80.0386993 224.839049,80.1131209 224.442146,80.2548764 C224.045242,80.4001758 223.708583,80.6411601 223.428624,80.9742856 C223.15221,81.307411 223.014002,81.7539408 223.014002,82.3174189 L223.014002,90.9609605 L219.902563,90.9609605 L219.902563,82.1225051 C219.902563,81.6653436 219.785618,81.2790599 219.544641,80.9742856 C219.307208,80.6659673 219.002443,80.4356147 218.640977,80.2761397 C218.279511,80.1166648 217.907415,80.0386993 217.531774,80.0386993 C217.149045,80.0386993 216.75923,80.1202087 216.362326,80.2832275 C215.965423,80.4427024 215.635851,80.6907746 215.370068,81.0239 C215.104284,81.3570254 214.973164,81.7893797 214.973164,82.3174189 L214.973164,90.9609605 L211.861725,90.9609605 Z" id="Fill-53"></path>
                <path d="M234.488409,90.9609605 L237.472272,90.9609605 L237.472272,77.7209968 L234.488409,77.7209968 L234.488409,90.9609605 Z M234.435252,75.3997505 L237.518341,75.3997505 L237.518341,72.45478 L234.435252,72.45478 L234.435252,75.3997505 Z" id="Fill-54"></path>
                <path d="M246.116616,91.2168292 C245.195233,91.2168292 244.319919,91.0679859 243.497762,90.7738433 C242.672061,90.4797006 241.981024,90.0189952 241.42465,89.3846394 C240.864733,88.7538274 240.510355,87.9422772 240.368604,86.939357 L243.107946,86.939357 C243.224891,87.4248696 243.437518,87.8253289 243.742283,88.1336471 C244.043504,88.4384214 244.401426,88.6616863 244.816048,88.8034418 C245.230671,88.9451973 245.659468,89.0160751 246.102441,89.0160751 C246.896247,89.0160751 247.537672,88.8778635 248.02317,88.6049841 C248.508667,88.3321048 248.753188,87.9103822 248.753188,87.3362724 C248.753188,86.9180937 248.622068,86.5885121 248.349197,86.34044 C248.07987,86.088824 247.643985,85.9045418 247.037999,85.7769619 L244.525458,85.1993082 C243.40208,84.9512361 242.50196,84.5401452 241.825098,83.9695793 C241.151779,83.3954695 240.808033,82.591007 240.800945,81.5491041 C240.793857,80.765905 240.988765,80.0642152 241.389213,79.4475788 C241.793204,78.8344863 242.388559,78.3489737 243.182365,77.9945849 C243.976172,77.6401962 244.954256,77.4630018 246.116616,77.4630018 C247.661704,77.4630018 248.902027,77.8067589 249.834041,78.4942731 C250.769599,79.1817873 251.24801,80.1634441 251.27636,81.4356997 L248.625612,81.4356997 C248.52993,80.8615899 248.260603,80.4150601 247.821174,80.0961102 C247.374658,79.7771604 246.797022,79.6141415 246.088265,79.6141415 C245.354703,79.6141415 244.755804,79.755897 244.284481,80.0358641 C243.816702,80.3193751 243.579269,80.7517294 243.579269,81.332927 C243.579269,81.7333863 243.756458,82.0487922 244.11438,82.2791449 C244.465214,82.5094976 245.003869,82.7044114 245.730344,82.8674303 L248.115308,83.4450839 C248.795714,83.6151905 249.355631,83.8455432 249.791516,84.136142 C250.227401,84.4267408 250.56406,84.7456906 250.808581,85.0894477 C251.053102,85.4367487 251.21966,85.7911374 251.322429,86.152614 C251.418111,86.5140905 251.467724,86.8507598 251.467724,87.1555341 C251.467724,88.0131549 251.24801,88.7396518 250.808581,89.3421127 C250.369152,89.9445736 249.752534,90.405279 248.95164,90.7313166 C248.154289,91.0573543 247.2081,91.2168292 246.116616,91.2168292" id="Fill-55"></path>
                <polygon id="Fill-56" points="254.297433 90.9609605 254.297433 71.9338285 257.394697 71.9338285 257.394697 83.7243423 262.8911 77.7209968 266.307305 77.7209968 261.519657 82.8950726 266.551826 90.9609605 263.390774 90.9609605 259.545772 84.8264913 257.394697 87.0804037 257.394697 90.9609605"></polygon>
                <path d="M270.789833,83.1243621 L277.012711,83.1243621 C277.012711,82.4864623 276.89931,81.9052648 276.672508,81.3914011 C276.44925,80.8739935 276.109047,80.4629026 275.655443,80.1581283 C275.201839,79.8568978 274.631291,79.7080545 273.940254,79.7080545 C273.256304,79.7080545 272.678668,79.8710734 272.210889,80.2041988 C271.74311,80.5373242 271.388732,80.9661346 271.147755,81.49063 C270.910321,82.0151253 270.789833,82.560884 270.789833,83.1243621 M274.131618,91.2150573 C272.859401,91.2150573 271.739566,90.9457218 270.772114,90.403507 C269.801118,89.8648361 269.046293,89.0887248 268.504094,88.0787168 C267.961896,87.0722528 267.692569,85.8744188 267.692569,84.481671 C267.692569,83.1243621 267.937089,81.9194403 268.426131,80.8633619 C268.918717,79.8108273 269.631017,78.9780137 270.563031,78.372009 C271.502133,77.7660042 272.629055,77.4647738 273.950885,77.4647738 C275.25854,77.4647738 276.357112,77.741197 277.246601,78.2975873 C278.132546,78.8504338 278.805864,79.6265451 279.266556,80.6188336 C279.727247,81.614666 279.957593,82.7770611 279.957593,84.1095628 L279.957593,85.0593247 L270.804008,85.0593247 C270.79692,85.8070849 270.913865,86.4768797 271.16193,87.0580772 C271.409994,87.6357309 271.775004,88.0893485 272.264045,88.41893 C272.749543,88.7485116 273.351986,88.9115304 274.06783,88.9115304 C274.801392,88.9115304 275.439273,88.7485116 275.985015,88.41893 C276.52367,88.0893485 276.885135,87.5896604 277.065868,86.9163217 L279.90798,86.9163217 C279.755597,87.8377325 279.387044,88.6173877 278.812952,89.2588314 C278.238859,89.900275 277.537191,90.3857876 276.71149,90.7153691 C275.889333,91.0484946 275.028194,91.2150573 274.131618,91.2150573" id="Fill-57"></path>
                <path d="M287.935351,91.2168292 C287.013968,91.2168292 286.138655,91.0679859 285.316498,90.7738433 C284.490797,90.4797006 283.79976,90.0189952 283.243386,89.3846394 C282.683469,88.7538274 282.329091,87.9422772 282.187339,86.939357 L284.926682,86.939357 C285.043626,87.4248696 285.256253,87.8253289 285.561018,88.1336471 C285.86224,88.4384214 286.220162,88.6616863 286.634784,88.8034418 C287.049406,88.9451973 287.478204,89.0160751 287.921176,89.0160751 C288.714983,89.0160751 289.356407,88.8778635 289.841905,88.6049841 C290.327403,88.3321048 290.571924,87.9103822 290.571924,87.3362724 C290.571924,86.9180937 290.440804,86.5885121 290.167933,86.34044 C289.898606,86.088824 289.462721,85.9045418 288.856734,85.7769619 L286.344194,85.1993082 C285.220815,84.9512361 284.320695,84.5401452 283.643833,83.9695793 C282.970515,83.3954695 282.626768,82.591007 282.619681,81.5491041 C282.612593,80.765905 282.807501,80.0642152 283.207948,79.4475788 C283.611939,78.8344863 284.207294,78.3489737 285.001101,77.9945849 C285.794908,77.6401962 286.772991,77.4630018 287.935351,77.4630018 C289.48044,77.4630018 290.720763,77.8067589 291.652777,78.4942731 C292.588335,79.1817873 293.066745,80.1634441 293.095096,81.4356997 L290.444348,81.4356997 C290.348666,80.8615899 290.079338,80.4150601 289.63991,80.0961102 C289.193393,79.7771604 288.615757,79.6141415 287.907001,79.6141415 C287.173439,79.6141415 286.57454,79.755897 286.103217,80.0358641 C285.635438,80.3193751 285.398005,80.7517294 285.398005,81.332927 C285.398005,81.7333863 285.575194,82.0487922 285.933115,82.2791449 C286.28395,82.5094976 286.822604,82.7044114 287.549079,82.8674303 L289.934043,83.4450839 C290.614449,83.6151905 291.174367,83.8455432 291.610252,84.136142 C292.046137,84.4267408 292.382796,84.7456906 292.627317,85.0894477 C292.871837,85.4367487 293.038395,85.7911374 293.141165,86.152614 C293.236847,86.5140905 293.28646,86.8507598 293.28646,87.1555341 C293.28646,88.0131549 293.066745,88.7396518 292.627317,89.3421127 C292.187888,89.9445736 291.57127,90.405279 290.770376,90.7313166 C289.973025,91.0573543 289.026836,91.2168292 287.935351,91.2168292" id="Fill-58"></path>
                <polygon id="Fill-59" points="296.116168 90.9609605 296.116168 71.9338285 299.213433 71.9338285 299.213433 83.7243423 304.709836 77.7209968 308.12604 77.7209968 303.338393 82.8950726 308.370561 90.9609605 305.209509 90.9609605 301.364507 84.8264913 299.213433 87.0804037 299.213433 90.9609605"></polygon>
                <path d="M315.373426,91.2168292 C314.724914,91.2168292 314.097665,91.1211443 313.498766,90.9262304 C312.896323,90.7348605 312.354125,90.4548934 311.879258,90.0827852 C311.400848,89.7142209 311.01812,89.2535155 310.738161,88.7077569 C310.454659,88.1584543 310.316451,87.5276423 310.316451,86.7976015 L310.316451,77.7181617 L313.438522,77.7181617 L313.438522,86.4396689 C313.438522,87.1555341 313.668867,87.7473633 314.126015,88.2080687 C314.583163,88.6687741 315.270656,88.8991268 316.192039,88.8991268 C317.028371,88.8991268 317.698146,88.6794058 318.201363,88.2399637 C318.708123,87.8005217 318.959732,87.1661658 318.959732,86.34044 L318.959732,77.7181617 L322.056996,77.7181617 L322.056996,90.9616693 L319.664944,90.9616693 L319.317654,88.3746314 C319.15464,89.0975845 318.871137,89.6681504 318.467146,90.0827852 C318.059611,90.49742 317.584745,90.7915627 317.042546,90.9616693 C316.500348,91.1317759 315.947518,91.2168292 315.373426,91.2168292" id="Fill-60"></path>
                <path d="M328.030038,90.7738433 C327.204337,90.4797006 326.5133,90.0189952 325.956926,89.3846394 C325.397009,88.7538274 325.042631,87.9422772 324.90088,86.939357 L327.640222,86.939357 C327.757167,87.4248696 327.969793,87.8253289 328.274559,88.1336471 C328.57578,88.4384214 328.933702,88.6616863 329.348324,88.8034418 C329.762946,88.9451973 330.191744,89.0160751 330.634716,89.0160751 C331.428523,89.0160751 332.069947,88.8778635 332.555445,88.6049841 C333.040943,88.3321048 333.285464,87.9103822 333.285464,87.3362724 C333.285464,86.9180937 333.154344,86.5885121 332.881473,86.34044 C332.612146,86.088824 332.176261,85.9045418 331.570274,85.7769619 L329.057734,85.1993082 C327.934356,84.9512361 327.034235,84.5401452 326.357373,83.9695793 C325.684055,83.3954695 325.340308,82.591007 325.333221,81.5491041 C325.326133,80.765905 325.521041,80.0642152 325.921488,79.4475788 C326.325479,78.8344863 326.920834,78.3489737 327.714641,77.9945849 C328.508448,77.6401962 329.486532,77.4630018 330.648892,77.4630018 C332.19398,77.4630018 333.434303,77.8067589 334.366317,78.4942731 C335.301875,79.1817873 335.780286,80.1634441 335.808636,81.4356997 L333.157888,81.4356997 C333.062206,80.8615899 332.792879,80.4150601 332.35345,80.0961102 C331.906934,79.7771604 331.329297,79.6141415 330.620541,79.6141415 C329.886979,79.6141415 329.28808,79.755897 328.816757,80.0358641 C328.348978,80.3193751 328.111545,80.7517294 328.111545,81.332927 C328.111545,81.7333863 328.288734,82.0487922 328.646656,82.2791449 C328.99749,82.5094976 329.536144,82.7044114 330.262619,82.8674303 L332.647584,83.4450839 C333.32799,83.6151905 333.887907,83.8455432 334.323792,84.136142 C334.759677,84.4267408 335.096336,84.7456906 335.340857,85.0894477 C335.585378,85.4367487 335.751935,85.7911374 335.854705,86.152614 C335.950387,86.5140905 336,86.8507598 336,87.1555341 C336,88.0131549 335.780286,88.7396518 335.340857,89.3421127 C334.901428,89.9445736 334.28481,90.405279 333.483916,90.7313166 C332.686565,91.0573543 331.740376,91.2168292 330.648892,91.2168292 C329.727509,91.2168292 328.852195,91.0679859 328.030038,90.7738433 Z" id="Fill-61"></path>
            </g>
        </g>
    </g>
</svg>