<?xml version="1.0" encoding="UTF-8"?>
<svg width="180px" height="180px" viewBox="0 0 180 180" version="1.1" xmlns="http://www.w3.org/2000/svg" xmlns:xlink="http://www.w3.org/1999/xlink">
    <title>Group 10</title>
    <g id="Page-1" stroke="none" stroke-width="1" fill="none" fill-rule="evenodd">
        <g id="Desktop-Copy-2" transform="translate(-196, -4139)">
            <g id="Group-10" transform="translate(196, 4139)">
                <circle id="Oval-Copy-4" fill="#EDF5F5" cx="90" cy="90" r="90"></circle>
                <g id="Group-29" transform="translate(55, 54)" fill="#184E51">
                    <path d="M35.5,55.5074627 C34.0383238,55.5074627 29.5904762,55.5074627 29.5904762,63.5 C29.5904762,65.2464478 30.1956762,67.0383433 31.2946857,68.5453284 C32.8237143,70.6415672 33.522819,71.4925373 35.5,71.4925373 C37.0303238,71.4925373 38.4809905,70.4281194 39.9355429,68.2375373 C40.6077714,67.2251493 41.4095238,65.581194 41.4095238,63.5 C41.4095238,61.0969104 40.8337905,55.5074627 35.5,55.5074627 M35.5,74 C32.101619,74 30.6817143,72.0526418 29.1785905,69.991194 C27.773581,68.0648358 27,65.7598507 27,63.5 C27,54.3640597 32.3253714,53 35.5,53 C40.7428,53 44,57.0235373 44,63.5 C44,65.6288358 43.3478476,67.7360448 42.1144571,69.5934478 C40.1456952,72.5585224 37.982,74 35.5,74" id="Fill-1"></path>
                    <path d="M19.006554,88 L19,86.7537485 C18.9726317,81.446898 25.0602362,79.2725007 28.3306719,78.1041399 C28.9031517,77.8997546 29.6045362,77.6492581 29.8594383,77.5127936 C30.154078,77.0102426 30.4154415,75.027768 30.4154415,73.2462515 L30.4154415,72 L33,72 L33,73.2462515 C33,75.0844725 32.8174656,78.3244148 31.5969078,79.3709546 C31.1468715,79.7563578 30.4248105,80.0143319 29.2281599,80.4414846 C26.3625306,81.4652802 21.5662361,83.1782529 21.5846511,86.7415975 L21.5911125,87.9875375 L19.006554,88 Z" id="Fill-3"></path>
                    <path d="M50.9934459,88 L48.4088277,87.9875375 L48.4152892,86.7415975 C48.4337046,83.1782529 43.6372995,81.4652802 40.7716041,80.4414846 C39.5749259,80.0143319 38.8528482,79.7563578 38.4028015,79.3709546 C37.1822156,78.3244148 37,75.0844725 37,73.2462515 L37,72.0003116 L39.5836489,72 L39.5846182,73.2459399 C39.5855874,75.0290143 39.8469569,77.0111773 40.1403111,77.5131051 C40.395219,77.6492581 41.0966198,77.8997546 41.6691127,78.1041399 C44.9396239,79.2725007 51.027369,81.446898 51,86.7537485 L50.9934459,88 Z" id="Fill-5"></path>
                    <path d="M54.5,51.5074627 C53.0383238,51.5074627 48.5904762,51.5074627 48.5904762,59.5 C48.5904762,61.2464478 49.1956762,63.0383433 50.2946857,64.5453284 C51.8237143,66.6415672 52.522819,67.4925373 54.5,67.4925373 C56.0303238,67.4925373 57.4809905,66.4281194 58.9355429,64.2375373 C59.6077714,63.2251493 60.4095238,61.581194 60.4095238,59.5 C60.4095238,57.0969104 59.8337905,51.5074627 54.5,51.5074627 M54.5,70 C51.101619,70 49.6817143,68.0526418 48.1782667,65.991194 C46.773581,64.0648358 46,61.7598507 46,59.5 C46,50.3643731 51.3253714,49 54.5,49 C59.7428,49 63,53.0235373 63,59.5 C63,61.6288358 62.3478476,63.7360448 61.1144571,65.5934478 C59.1456952,68.5585224 56.982,70 54.5,70" id="Fill-7"></path>
                    <path d="M41.6241061,79 L40,77.0611586 L40.9967055,76.2716191 C42.9820812,74.6987914 45.613178,73.751094 47.3546002,73.1240884 C47.9241462,72.9187331 48.6219365,72.6674307 48.8755323,72.5305272 C49.1686621,72.0263597 49.4286862,70.0375078 49.4286862,68.2502605 L49.4286862,67 L52,67 L52,68.2502605 C52,70.0943947 51.8187224,73.3447593 50.604098,74.3946656 C50.156368,74.7813086 49.4376858,75.0401125 48.247489,75.4689519 C46.5713138,76.0728277 44.2751306,76.8995624 42.6208116,78.2104605 L41.6241061,79 Z" id="Fill-9"></path>
                    <path d="M69.993446,83 L67.4088875,82.9875375 L67.4153489,81.7415975 C67.4337639,78.1782529 62.6374694,76.4652802 59.7718401,75.4414846 C58.5751895,75.0143319 57.8531285,74.7563578 57.4030922,74.3709546 C56.1825344,73.3244148 56,70.0844725 56,68.2462515 L56,67.0003116 L58.5839124,67 L58.5845585,68.2459399 C58.5858508,70.0290143 58.8472143,72.0111773 59.1405617,72.5131051 C59.3954638,72.6492581 60.0968483,72.8997546 60.6693281,73.1041399 C63.9397638,74.2725007 70.0273683,76.446898 70,81.7537485 L69.993446,83 Z" id="Fill-11"></path>
                    <path d="M16.5,51.5074627 C11.1662095,51.5074627 10.5904762,57.0969104 10.5904762,59.5 C10.5904762,61.581194 11.3922286,63.2251493 12.0644571,64.2375373 C13.5190095,66.4281194 14.9696762,67.4925373 16.5,67.4925373 C18.477181,67.4925373 19.1762857,66.6415672 20.7049905,64.5453284 C21.8043238,63.0383433 22.4095238,61.2464478 22.4095238,59.5 C22.4095238,51.5074627 17.9616762,51.5074627 16.5,51.5074627 M16.5,70 C14.018,70 11.8543048,68.5585224 9.88554286,65.5934478 C8.65215238,63.7360448 8,61.6288358 8,59.5 C8,53.0235373 11.2572,49 16.5,49 C19.6746286,49 25,50.3643731 25,59.5 C25,61.7598507 24.226419,64.0648358 22.8214095,65.991194 C21.3182857,68.0526418 19.898381,70 16.5,70" id="Fill-13"></path>
                    <path d="M29.3758939,79 L28.3791884,78.2104605 C26.7248694,76.8995624 24.4286862,76.0728277 22.752511,75.4689519 C21.5619928,75.0401125 20.843632,74.7813086 20.395902,74.3946656 C19.1812776,73.3447593 19,70.0943947 19,68.2502605 L19,67.0003126 L21.570671,67 L21.5713138,68.2499479 C21.5725994,70.0387581 21.8323021,72.0272974 22.1244677,72.5308398 C22.3780635,72.6674307 23.0758538,72.9187331 23.6453998,73.1240884 C25.386822,73.751094 28.0179188,74.6987914 30.0032945,76.2716191 L31,77.0611586 L29.3758939,79 Z" id="Fill-15"></path>
                    <path d="M0.00655413808,83 L0,81.7537485 C-0.0273689754,76.446898 6.06037605,74.2725007 9.33088727,73.1041399 C9.9033802,72.8997546 10.604781,72.6492581 10.8596889,72.5127936 C11.1543354,72.0102426 11.4153818,70.027768 11.4153818,68.2462515 L11.4153818,67 L14,67 L14,68.2462515 C14,70.0844725 13.8177844,73.3244148 12.5971985,74.3709546 C12.1471518,74.7563578 11.4250741,75.0143319 10.2283959,75.4414846 C7.36270053,76.4652802 2.56629536,78.1782529 2.58471076,81.7415975 L2.59117231,82.9875375 L0.00655413808,83 Z" id="Fill-17"></path>
                    <path d="M29.9998387,38 C29.3618145,38 28.7199195,37.9783012 28.0918946,37.9355418 L26.8048791,37.8477894 L26.9819647,35.301373 L28.2689802,35.3888063 C28.8382991,35.4274174 29.420843,35.4472016 29.9998387,35.4472016 C41.2591281,35.4472016 50.4195177,28.0689759 50.4195177,19.0001595 C50.4195177,9.93102406 41.2591281,2.55279842 29.9998387,2.55279842 C18.7405493,2.55279842 9.5804823,9.93102406 9.5804823,19.0001595 C9.5804823,25.2283495 13.8737597,30.8524835 20.7849364,33.6774741 L21.9771193,34.1650586 L20.9916976,36.5244825 L19.7991922,36.036898 C11.9042066,32.8092035 7,26.2810597 7,19.0001595 C7,8.52347483 17.3177359,0 29.9998387,0 C42.6819415,0 53,8.52347483 53,19.0001595 C53,29.4768443 42.6819415,38 29.9998387,38" id="Fill-19"></path>
                    <path d="M18.2373671,46 C18.0778596,46 17.9167539,45.9698596 17.7633199,45.9086168 C17.3170827,45.7296981 17.0082967,45.3151068 16.9645041,44.8351044 L16.0055415,34.399782 C15.9403321,33.6943677 16.4581719,33.070076 17.1610914,33.0049855 C17.8652896,32.943422 18.487017,33.4590158 18.5515872,34.1644301 L19.2807184,42.0968143 L25.8793398,36.3031181 C26.4102854,35.8365827 27.2180515,35.8901301 27.683468,36.4233592 C28.1485649,36.9562676 28.094863,37.7665322 27.5635977,38.2330676 L19.0796559,45.6825636 C18.8424725,45.8906608 18.5419975,46 18.2373671,46" id="Fill-21"></path>
                    <path d="M42.2234202,44 C37.8387243,44 33.6544678,42.9038095 30.1231183,40.8298413 L29,40.1701587 L30.3656172,38 L31.4887355,38.6596825 C34.6083626,40.491746 38.3204362,41.4603175 42.2234202,41.4603175 C42.6670158,41.4603175 43.1069969,41.4479365 43.5318629,41.4234921 L44.8435915,41.3479365 L45,43.8831746 L43.6879428,43.9587302 C43.2114883,43.9860317 42.7189329,44 42.2234202,44" id="Fill-23"></path>
                    <path d="M51.3337501,42 L50,39.7136902 L51.1901785,39.0732352 C56.2506536,36.3489263 59.2717972,31.8690171 59.2717972,27.0893553 C59.2717972,22.7611242 56.8181198,18.6844888 52.5402978,15.9051433 L51.4104808,15.1709951 L52.9389565,13 L54.0687734,13.7341482 C59.1091281,17.0091502 62,21.8769359 62,27.0893553 C62,32.8305186 58.4574287,38.1651322 52.5239286,41.3592174 L51.3337501,42 Z" id="Fill-25"></path>
                    <path d="M51.0030968,49 C50.6875619,49 50.3763313,48.8864533 50.1306578,48.6703483 L44.4520236,43.6712963 C43.9017414,43.1868082 43.8461172,42.3453638 44.3278624,41.7919485 C44.8096077,41.2382001 45.6462882,41.1822592 46.1969015,41.6670804 L49.9223981,44.9466156 L50.3567966,40.2096201 C50.4236781,39.4767278 51.0716337,38.9409604 51.7970659,39.0052259 C52.525478,39.0731541 53.061523,39.7218022 52.9943104,40.4540286 L52.3215226,47.790278 C52.2761624,48.2887514 51.9563233,48.7192966 51.4941127,48.9051003 C51.3351864,48.9686997 51.1686449,49 51.0030968,49" id="Fill-27"></path>
                </g>
            </g>
        </g>
    </g>
</svg>