<?xml version="1.0" encoding="UTF-8"?>
<svg width="180px" height="180px" viewBox="0 0 180 180" version="1.1" xmlns="http://www.w3.org/2000/svg" xmlns:xlink="http://www.w3.org/1999/xlink">
    <title>Group 3</title>
    <defs>
        <polygon id="path-1" points="0 66 97 66 97 0 0 0"></polygon>
    </defs>
    <g id="Page-1" stroke="none" stroke-width="1" fill="none" fill-rule="evenodd">
        <g id="Desktop-Copy-2" transform="translate(-196, -3669)">
            <g id="Group-3" transform="translate(196, 3669)">
                <circle id="Oval-Copy-3" fill="#EDF5F5" cx="90" cy="90" r="90"></circle>
                <g id="Group-24" style="mix-blend-mode: multiply;" transform="translate(45, 55)">
                    <path d="M60.8425352,65 L2,65 L2,5.10683725 C2,3.39099729 3.40322979,2 5.13415892,2 L79.8658411,2 C81.5967702,2 83,3.39099729 83,5.10683725 L83,65 L68.0232173,65 L60.8425352,65 Z" id="Fill-1" fill="#FFFFFF"></path>
                    <path d="M81.6106032,66 L66.7776804,66 C66.0104748,66 65.3882836,65.3753418 65.3882836,64.6047148 C65.3882836,63.8342576 66.0104748,63.2094295 66.7776804,63.2094295 L80.2212065,63.2094295 L80.2212065,4.51211901 C80.2212065,3.56306675 79.4518012,2.7905705 78.5062466,2.7905705 L4.49375344,2.7905705 C3.5480296,2.7905705 2.7787935,3.56306675 2.7787935,4.51211901 L2.7787935,63.2094295 L59.6658845,63.2094295 C60.4332593,63.2094295 61.0552812,63.8342576 61.0552812,64.6047148 C61.0552812,65.3753418 60.4332593,66 59.6658845,66 L1.38939675,66 C0.622021977,66 0,65.3753418 0,64.6047148 L0,4.51211901 C0,2.02419168 2.01615665,0 4.49375344,0 L78.5062466,0 C80.9836741,0 83,2.02419168 83,4.51211901 L83,64.6047148 C83,65.3753418 82.3778088,66 81.6106032,66" id="Fill-3" fill="#184E51"></path>
                    <mask id="mask-2" fill="white">
                        <use xlink:href="#path-1"></use>
                    </mask>
                    <g id="Clip-6"></g>
                    <polygon id="Fill-5" fill="#184E51" points="2 14 83 14 83 11 2 11"></polygon>
                    <polygon id="Fill-7" fill="#184E51" points="73 9 76 9 76 6 73 6"></polygon>
                    <polygon id="Fill-8" fill="#184E51" points="68 9 71 9 71 6 68 6"></polygon>
                    <polygon id="Fill-9" fill="#184E51" points="64 9 67 9 67 6 64 6"></polygon>
                    <path d="M29,21 L56,21 L29,21 Z" id="Fill-10" fill="#FFFFFF"></path>
                    <path d="M55.618638,23 L28.381362,23 C27.6184249,23 27,22.3284618 27,21.5 C27,20.6717209 27.6184249,20 28.381362,20 L55.618638,20 C56.3814069,20 57,20.6717209 57,21.5 C57,22.3284618 56.3814069,23 55.618638,23" id="Fill-11" fill="#184E51"></path>
                    <path d="M11,29 L48,29 L11,29 Z" id="Fill-12" fill="#FFFFFF"></path>
                    <path d="M48.6123915,30 L11.3876085,30 C10.6212214,30 10,29.3282791 10,28.5 C10,27.6717209 10.6212214,27 11.3876085,27 L48.6123915,27 C49.3786096,27 50,27.6717209 50,28.5 C50,29.3282791 49.3786096,30 48.6123915,30" id="Fill-13" fill="#184E51"></path>
                    <path d="M11,34 L44,34 L11,34 Z" id="Fill-14" fill="#FFFFFF"></path>
                    <path d="M43.6139633,36 L11.3860367,36 C10.6205177,36 10,35.3284618 10,34.5 C10,33.6717209 10.6205177,33 11.3860367,33 L43.6139633,33 C44.3793135,33 45,33.6717209 45,34.5 C45,35.3284618 44.3793135,36 43.6139633,36" id="Fill-15" fill="#184E51"></path>
                    <path d="M43.0109093,51.3708327 C42.7957884,44.1990713 45.7729806,36.300729 50.9813758,30.233099 L59.048579,23.3928827 C63.1859358,20.8683534 67.9426109,19.1610579 72.8535236,18.4433046 C78.8288789,17.5692006 85.017833,17.9766291 92.9206514,19.7645615 L97,20.6872174 L95.8024598,24.7088769 C95.1772224,26.8078131 94.3346655,28.8709295 93.2900099,30.8630855 L93.7503551,30.9839559 L90.2896483,35.6469759 C88.4183331,38.168789 86.2505502,40.4188132 83.8463373,42.3350856 C82.188621,43.6565123 80.3749759,44.8754027 78.4563071,45.9571256 L77.8082384,46.322623 L77.0720581,46.4232918 C76.4397177,46.5098703 75.8430616,46.5791332 75.2694058,46.633457 L76.2802373,47.5819168 L70.0187306,49.646561 C68.8832575,50.0210558 67.7139604,50.3653329 66.5439867,50.669716 C64.9080869,51.0963277 63.2791211,51.4489232 61.7035972,51.7901446 C59.5682854,52.252576 57.551696,52.6892036 55.5604746,53.286426 C52.990693,54.0578241 50.8543665,55.0022096 49.0298977,56.1744155 L43.075175,60 L43.0109093,51.3708327 Z" id="Fill-16" fill="#FFFFFF"></path>
                    <path d="M80.3942153,39.3699193 C82.5052946,37.6785296 84.4446496,35.661343 86.1142004,33.3998086 C83.4520531,32.6982228 83.5108674,32.5783445 80.4914527,31.7873176 C84.7378785,31.1683713 85.4540984,30.9803069 87.9458697,30.6274735 C89.2301784,28.4548701 90.2735002,26.1163076 91,23.6639881 C84.9913361,22.2980553 78.7619079,21.462988 72.4199068,22.3956584 C68.0427077,23.0394305 63.5889993,24.5840755 59.5648545,27.1741275 C56.9141666,30.8488658 54.6028828,34.8388586 52.7132418,39.0364705 C52.6490348,37.0067009 52.7540242,34.9447937 53.0106837,32.8833966 C48.6794912,37.955355 45.8007926,44.8399418 46.0107715,51.4184563 L46.022568,53 C48.3891272,51.4715088 50.9563965,50.4235512 53.5133859,49.652419 C57.1898692,48.543757 60.9059552,47.9588188 64.5954147,46.9929906 C65.6717669,46.711064 66.7484561,46.3935989 67.8204267,46.038385 C66.1264402,44.4391571 65.5433529,44.1618216 63.81246,42.610545 C69.1101281,42.9763015 71.5012916,43.2050055 75.536896,42.6494842 C77.2109969,41.7011702 78.8382485,40.6166539 80.3942153,39.3699193" id="Fill-17" fill="#FFFFFF"></path>
                    <path d="M50.8688944,38.5983527 C48.3190591,42.6014757 46.8719626,47.0956917 46.8399817,51.2945546 C48.5970343,50.4252633 50.5397496,49.6882915 52.7208529,49.0627206 C54.9588304,48.4197173 57.2217013,47.9510371 59.4104108,47.4971329 C60.9664155,47.1748842 62.5751455,46.841512 64.1387564,46.4520243 C64.4006548,46.3867777 64.6618617,46.3195388 64.9232414,46.2503076 C64.8497716,46.1938601 64.7749188,46.1365825 64.6993745,46.0786408 C64.1477457,45.6552847 63.5765826,45.2179827 62.7490529,44.511725 C62.2950958,44.1243956 62.1481561,43.5026432 62.3830867,42.9648978 C62.6173258,42.4269865 63.1926379,42.0975988 63.7886943,42.1327955 L64.8587608,42.2033549 C69.3755133,42.5055149 71.6988887,42.6600814 75.2584589,42.2139803 C76.8796356,41.3254304 78.4126485,40.3329508 79.8189476,39.2612787 C81.3728778,38.0765455 82.8151338,36.7352536 84.1244527,35.2594839 C83.9005858,35.1950674 83.6946974,35.1338053 83.4915749,35.0738713 C82.7708791,34.8595369 82.0258085,34.6385616 80.4442191,34.2444253 C79.7905969,34.0813917 79.3463205,33.4983223 79.3836604,32.8500064 C79.4211733,32.2016904 79.9292388,31.6685937 80.5980736,31.5759534 C82.9496268,31.2498862 84.2394114,31.0468412 85.3345441,30.8750084 C86.0796146,30.7579629 86.7360027,30.6546972 87.5669898,30.5376517 C88.4360082,29.0678588 89.1637918,27.5502515 89.7404867,26.0060807 C83.0682158,24.6754142 77.7681884,24.3971613 72.7259106,25.1047472 C68.2902342,25.7251714 64.0084123,27.2206978 60.3231655,29.4332732 C57.7104053,32.9112685 55.4487446,36.6560611 53.5988606,40.5672079 C53.32659,41.1443004 52.6743508,41.465885 52.0283349,41.3400404 C51.3811088,41.2161879 50.9084817,40.6804349 50.8875644,40.0467288 C50.8716604,39.5682534 50.865437,39.0849633 50.8688944,38.5983527 M45.4426719,55 C45.2105072,55 44.977651,54.9455448 44.7655393,54.8349741 C44.3115822,54.5987248 44.0273836,54.1433264 44.0232347,53.6467545 L44.0114795,52.1025837 C43.7966019,45.7118982 46.6091999,38.5976887 51.5356548,33.1055143 C51.9451843,32.6502819 52.615402,32.5058427 53.1879481,32.749563 C53.6432882,32.9438088 53.9503057,33.3485705 54.0168607,33.8064592 C55.2900497,31.671084 56.6832106,29.6031137 58.1864898,27.6188186 C58.2910763,27.4810203 58.4214204,27.3631447 58.571126,27.2713345 C62.6422192,24.7771857 67.3954581,23.0952166 72.3170726,22.4063913 C78.0987163,21.597532 84.1348249,21.9856915 91.8925478,23.6643401 C92.2764925,23.7475172 92.6070203,23.979782 92.8059939,24.3060152 C93.0041032,24.6322485 93.0533712,25.0228983 92.9404869,25.3843282 C92.1807224,27.825848 91.0795393,30.2167311 89.6670169,32.4912328 C89.4466074,32.8460218 89.0709605,33.0855916 88.6453541,33.1428692 C88.1402273,33.2114363 87.7063232,33.2726984 87.3021526,33.3326324 C87.5815109,33.4943378 87.7977715,33.7458612 87.9085813,34.0488514 C88.0645102,34.4768561 87.9889659,34.950683 87.7070146,35.3141052 C85.9271431,37.6098576 83.8665304,39.656079 81.5836065,41.3966539 C79.9921635,42.6101088 78.2525707,43.727603 76.4132318,44.7194185 C76.2579944,44.8032597 76.0873715,44.8578809 75.9106982,44.88129 C72.9525434,45.2686194 70.7742061,45.2759243 67.9533102,45.1288288 C68.2001688,45.3371865 68.4696735,45.5721076 68.7727149,45.8443837 C69.1391997,46.1732734 69.297376,46.6630383 69.1891592,47.1337107 C69.0811153,47.603553 68.7227554,47.9844076 68.2458066,48.1348235 C67.1377086,48.4842999 65.9953823,48.8057185 64.8511545,49.0906123 C63.2313608,49.4947099 61.5935885,49.8340589 60.0092332,50.1622844 C57.8739405,50.6048991 55.6656966,51.0622898 53.5338614,51.674579 C50.6740697,52.4953918 48.2780888,53.5124427 46.2079682,54.7850015 C45.9751121,54.9281125 45.7095834,55 45.4426719,55" id="Fill-18" fill="#184E51"></path>
                    <path d="M42.386999,61 C41.969493,61 41.556881,60.8107189 41.2841689,60.4502159 C40.9046333,59.9481354 40.9134087,59.2690405 41.2618929,58.7814414 C41.2996946,58.7151675 41.3558908,58.6114121 41.4309879,58.4720495 C44.7814988,52.2951135 54.5758452,37.1647213 73.1239794,30.090276 C73.8411987,29.8183654 74.6395903,30.1810832 74.9101085,30.9044744 C75.1807955,31.6270137 74.8194858,32.4343973 74.1037853,32.7076708 C56.4208707,39.4515982 47.0642812,53.9119251 43.8619393,59.816269 C43.5703264,60.3537865 43.4824038,60.515638 43.2267362,60.7130969 C42.9756251,60.9064669 42.679962,61 42.386999,61" id="Fill-19" fill="#494E5B"></path>
                    <path d="M28,49 C28,53.4183532 24.4182231,57 20.0000838,57 C15.5817769,57 12,53.4183532 12,49 C12,44.5816468 15.5817769,41 20.0000838,41 C24.4182231,41 28,44.5816468 28,49" id="Fill-20" fill="#FFFFFF"></path>
                    <path d="M19.5,42.7887883 C15.7995835,42.7887883 12.7888132,45.7995317 12.7888132,49.4999151 C12.7888132,53.2004683 15.7995835,56.2112117 19.5,56.2112117 C23.2004165,56.2112117 26.2111868,53.2004683 26.2111868,49.4999151 C26.2111868,45.7995317 23.2004165,42.7887883 19.5,42.7887883 M19.5,59 C14.2615077,59 10,54.7385304 10,49.4999151 C10,44.2614696 14.2615077,40 19.5,40 C24.7384923,40 29,44.2614696 29,49.4999151 C29,54.7385304 24.7384923,59 19.5,59" id="Fill-21" fill="#184E51"></path>
                    <path d="M21,52 C19.3431162,52 18,50.6568426 18,48.9999081 C18,47.3431574 19.3431162,46 21,46 L21,52 Z" id="Fill-22" fill="#FFFFFF"></path>
                    <path d="M20.495419,53 C18.0167359,53 16,50.9810032 16,48.4995414 C16,46.0188133 18.0167359,44 20.495419,44 C21.3264109,44 22,44.6743442 22,45.5062677 C22,46.3380078 21.3264109,47.0125354 20.495419,47.0125354 C19.6763376,47.0125354 19.009162,47.6795418 19.009162,48.4995414 C19.009162,49.3197244 19.6763376,49.9874646 20.495419,49.9874646 C21.3264109,49.9874646 22,50.6619922 22,51.4937323 C22,52.3256558 21.3264109,53 20.495419,53" id="Fill-23" fill="#184E51"></path>
                </g>
            </g>
        </g>
    </g>
</svg>