<?xml version="1.0" encoding="UTF-8"?>
<svg width="180px" height="180px" viewBox="0 0 180 180" version="1.1" xmlns="http://www.w3.org/2000/svg" xmlns:xlink="http://www.w3.org/1999/xlink">
    <title>Group 6</title>
    <defs>
        <polygon id="path-1" points="0 0 90.9999272 0 90.9999272 90.9998908 0 90.9998908"></polygon>
        <polygon id="path-3" points="0 91 91 91 91 0 0 0"></polygon>
    </defs>
    <g id="Page-1" stroke="none" stroke-width="1" fill="none" fill-rule="evenodd">
        <g id="Desktop-Copy-2" transform="translate(-252, -5330)">
            <g id="Group-6" transform="translate(252, 5330)">
                <g id="Group-26-Copy-2" transform="translate(44, 45)">
                    <polygon id="Fill-1" fill="#246165" points="2 18 51 18 51 15 2 15"></polygon>
                    <polygon id="Fill-2" fill="#246165" points="24.8161991 63 24 59.6679174 37.6304191 56.1914589 37.6304191 51 41 51 41 58.8759939"></polygon>
                    <polygon id="Fill-3" fill="#246165" points="66.1838009 63 50 58.8759939 50 51 53.3695809 51 53.3695809 56.1914589 67 59.6679174"></polygon>
                    <polygon id="Fill-4" fill="#246165" points="33 40 36 40 36 36 33 36"></polygon>
                    <g id="Group-25">
                        <path d="M45.5,54.2499776 C38.74598,54.2499776 33.249944,48.7539416 33.249944,41.9999216 L33.249944,38.5000616 L36.750168,38.5000616 L36.750168,41.9999216 C36.750168,46.8243776 40.675544,50.7501176 45.5,50.7501176 C50.324456,50.7501176 54.249832,46.8243776 54.249832,41.9999216 L54.249832,36.7499496 C54.249832,31.9254936 50.324456,28.0001176 45.5,28.0001176 C39.858728,28.0001176 35.8631,26.3166176 33.7883,25.1663776 C33.50802,25.8277656 33.249944,26.7712536 33.249944,28.0001176 C33.249944,30.1054936 33.931716,34.9998376 40.250028,34.9998376 L40.250028,38.5000616 C32.49974,38.5000616 29.750084,32.8431376 29.750084,28.0001176 C29.750084,23.8934696 31.780112,21.7433216 32.012708,21.5125456 L33.119996,20.4052576 L34.343764,21.3829616 C34.37616,21.4084416 38.406004,24.4998936 45.5,24.4998936 C52.25402,24.4998936 57.750056,29.9959296 57.750056,36.7499496 L57.750056,41.9999216 C57.750056,48.7539416 52.25402,54.2499776 45.5,54.2499776" id="Fill-5" fill="#246165"></path>
                        <g id="Group-9" transform="translate(0, 0.0001)">
                            <mask id="mask-2" fill="white">
                                <use xlink:href="#path-1"></use>
                            </mask>
                            <g id="Clip-8"></g>
                            <path d="M7.0000112,3.49986 C5.0704472,3.49986 3.5001512,5.07052 3.5001512,6.99972 L3.5001512,83.999916 C3.5001512,85.92948 5.0704472,87.499776 7.0000112,87.499776 L83.9998432,87.499776 C85.9294072,87.499776 87.5000672,85.92948 87.5000672,83.999916 L87.5000672,6.99972 C87.5000672,5.07052 85.9294072,3.49986 83.9998432,3.49986 L7.0000112,3.49986 Z M83.9998432,91 L7.0000112,91 C3.1394272,91 -7.28e-05,87.8605 -7.28e-05,83.999916 L-7.28e-05,6.99972 C-7.28e-05,3.139136 3.1394272,0 7.0000112,0 L83.9998432,0 C87.8607912,0 90.9999272,3.139136 90.9999272,6.99972 L90.9999272,83.999916 C90.9999272,87.8605 87.8607912,91 83.9998432,91 L83.9998432,91 Z" id="Fill-7" fill="#246165" mask="url(#mask-2)"></path>
                        </g>
                        <path d="M24.5000028,69.9999664 C23.5343108,69.9999664 22.7498908,70.7843864 22.7498908,71.7500784 L22.7498908,78.7497984 C22.7498908,79.7154904 23.5343108,80.4999104 24.5000028,80.4999104 L66.5001428,80.4999104 C67.4654708,80.4999104 68.2498908,79.7154904 68.2498908,78.7497984 L68.2498908,71.7500784 C68.2498908,70.7843864 67.4654708,69.9999664 66.5001428,69.9999664 L24.5000028,69.9999664 Z M66.5001428,84.0001344 L24.5000028,84.0001344 C21.6051108,84.0001344 19.2500308,81.6450544 19.2500308,78.7497984 L19.2500308,71.7500784 C19.2500308,68.8548224 21.6051108,66.5001064 24.5000028,66.5001064 L66.5001428,66.5001064 C69.3950348,66.5001064 71.7501148,68.8548224 71.7501148,71.7500784 L71.7501148,78.7497984 C71.7501148,81.6450544 69.3950348,84.0001344 66.5001428,84.0001344 L66.5001428,84.0001344 Z" id="Fill-10" fill="#246165"></path>
                        <mask id="mask-4" fill="white">
                            <use xlink:href="#path-3"></use>
                        </mask>
                        <g id="Clip-13"></g>
                        <polygon id="Fill-12" fill="#246165" points="27.999972 76.999832 31.499832 76.999832 31.499832 73.499972 27.999972 73.499972"></polygon>
                        <polygon id="Fill-14" fill="#246165" points="35.000056 76.999832 64.75014 76.999832 64.75014 73.499972 35.000056 73.499972"></polygon>
                        <polygon id="Fill-15" fill="#246165" points="54.250196 17.500028 57.750056 17.500028 57.750056 14.000168 54.250196 14.000168"></polygon>
                        <polygon id="Fill-16" fill="#246165" points="61.249916 17.500028 89.249888 17.500028 89.249888 14.000168 61.249916 14.000168"></polygon>
                        <path d="M45.5,62.9999916 C40.971112,62.9999916 38.7751,58.7157116 38.684464,58.5326196 L41.810496,56.9568636 C41.823964,56.9827076 43.151836,59.5001316 45.5,59.5001316 C47.848164,59.5001316 49.176036,56.9827076 49.189868,56.9568636 L52.315536,58.5326196 C52.2249,58.7157116 50.028888,62.9999916 45.5,62.9999916" id="Fill-17" fill="#246165"></path>
                        <polygon id="Fill-18" fill="#246165" points="10.500308 40.250028 14.000168 40.250028 14.000168 27.999972 10.500308 27.999972"></polygon>
                        <polygon id="Fill-19" fill="#246165" points="10.500308 47.250112 14.000168 47.250112 14.000168 43.750252 10.500308 43.750252"></polygon>
                        <polygon id="Fill-20" fill="#246165" points="77.000196 45.5 80.500056 45.5 80.500056 33.249944 77.000196 33.249944"></polygon>
                        <polygon id="Fill-21" fill="#246165" points="77.000196 52.500084 80.500056 52.500084 80.500056 49.000224 77.000196 49.000224"></polygon>
                        <polygon id="Fill-22" fill="#246165" points="64.75014 10.499944 68.25 10.499944 68.25 7.000084 64.75014 7.000084"></polygon>
                        <polygon id="Fill-23" fill="#246165" points="71.750224 10.499944 75.250084 10.499944 75.250084 7.000084 71.750224 7.000084"></polygon>
                        <polygon id="Fill-24" fill="#246165" points="78.750308 10.499944 82.250168 10.499944 82.250168 7.000084 78.750308 7.000084"></polygon>
                    </g>
                </g>
                <circle id="Oval-Copy-3" stroke="#246165" stroke-width="2" cx="90" cy="90" r="89"></circle>
            </g>
        </g>
    </g>
</svg>