<?xml version="1.0" encoding="UTF-8"?>
<svg width="118px" height="118px" viewBox="0 0 118 118" version="1.1" xmlns="http://www.w3.org/2000/svg" xmlns:xlink="http://www.w3.org/1999/xlink">
    <title>Group 8</title>
    <defs>
        <polygon id="path-1" points="0 0 2.66132579 0 2.66132579 12.5107376 0 12.5107376"></polygon>
        <polygon id="path-3" points="0 0 7.21545867 0 7.21545867 2.57562633 0 2.57562633"></polygon>
        <polygon id="path-5" points="0 0 7.81055944 0 7.81055944 2.79331023 0 2.79331023"></polygon>
    </defs>
    <g id="Page-1" stroke="none" stroke-width="1" fill="none" fill-rule="evenodd">
        <g id="Desktop-Copy-2" transform="translate(-215, -1778)">
            <g id="Group-8" transform="translate(215, 1778)">
                <circle id="Oval-Copy-3" stroke="#246165" stroke-width="2" cx="59" cy="59" r="58"></circle>
                <g id="Group-39" transform="translate(26, 22)">
                    <polygon id="Fill-1" fill="#246165" points="23.375013 63 23 60.5998301 40.624987 58 41 60.4001699"></polygon>
                    <polygon id="Fill-2" fill="#246165" points="26.3766635 68 26 65.5686915 40.6233365 63 41 65.4313085"></polygon>
                    <g id="Group-38">
                        <path d="M33.5206936,72 C33.4319528,72 33.3429133,71.9979011 33.2532762,71.9934035 C30.3490338,71.8494803 28.0650803,69.358109 28.1615896,66.4397655 L28.2010299,65.2413046 L30.5901577,65.3207623 L30.5504185,66.5195229 C30.4969351,68.1371602 31.7623123,69.5179238 33.3709996,69.5976812 C35.0089684,69.6807369 36.4019291,68.4091151 36.4826025,66.7677905 C36.4966456,66.4772455 36.4697545,66.1887993 36.4025266,65.9108475 L36.119871,64.745669 L38.4423685,64.1786714 L38.7250242,65.3438499 C38.8466318,65.8457822 38.8953347,66.3645056 38.8699375,66.8856277 C38.7286096,69.7583955 36.355019,72 33.5206936,72" id="Fill-3" fill="#246165"></path>
                        <path d="M40.0727779,52.3694096 L38.8229378,50.3248001 L39.8415141,49.6975346 C43.8871357,47.2073627 46.4417933,42.8851679 46.6754474,38.135701 C46.7208635,37.211294 46.6784353,36.2820896 46.549059,35.3735741 L46.3802425,34.1862074 L48.7466622,33.8470882 L48.9154787,35.034455 C49.0663679,36.0940898 49.1159671,37.1771122 49.0627824,38.2541378 C48.7902856,43.7951826 45.8104493,48.8375933 41.091653,51.742444 L40.0727779,52.3694096 Z" id="Fill-5" fill="#246165"></path>
                        <path d="M22.9256171,51.3444063 L21.9883117,50.6005031 C17.7529583,47.2377965 15.3829531,42.0034881 15.6485777,36.5982709 C16.1039342,27.3533016 23.9657063,20.2000167 33.1807,20.6602712 C35.972896,20.7984975 38.7020472,21.6407483 41.0726499,23.0958722 L42.0924215,23.7219383 L40.8452705,25.768047 L39.825499,25.1422808 C37.7952184,23.8961454 35.4565862,23.1744303 33.0629766,23.0559935 C25.1659472,22.6671009 18.426133,28.7928338 18.0362115,36.7164079 C17.8082345,41.3495369 19.840009,45.8363439 23.4715071,48.7190065 L24.4085137,49.4632096 L22.9256171,51.3444063 Z" id="Fill-7" fill="#246165"></path>
                        <polygon id="Fill-9" fill="#246165" points="24.67372 58.6735175 21.8668833 49.3251033 24.1556175 48.6330724 26.9624542 57.9814865"></polygon>
                        <polygon id="Fill-11" fill="#246165" points="39.8177603 56.9017024 37.5197636 56.2411547 39.347763 49.8365705 41.6457597 50.4968184"></polygon>
                        <path d="M36.2220573,48.5009029 L35.0361583,46.4182136 L36.0738572,45.8230311 C38.8675472,44.2215852 40.6584966,41.3461187 40.8649608,38.1321329 L40.9417499,36.9348714 L43.3269934,37.0889892 L43.2502043,38.2859508 C42.9920494,42.3068064 40.7529144,45.9030884 37.2597562,47.9060201 L36.2220573,48.5009029 Z" id="Fill-13" fill="#246165"></path>
                        <polygon id="Fill-15" fill="#246165" points="20.0628767 15.2880664 16.8607403 9.00401786 18.9890241 7.91200027 22.1911605 14.1960488"></polygon>
                        <g id="Group-19" transform="translate(31.7493, 0)">
                            <mask id="mask-2" fill="white">
                                <use xlink:href="#path-1"></use>
                            </mask>
                            <g id="Clip-18"></g>
                            <polygon id="Fill-17" fill="#515151" mask="url(#mask-2)" points="2.38972535 12.5107376 0 12.4582656 0.271600443 -8.99520255e-05 2.66132579 0.0523820629"></polygon>
                        </g>
                        <polygon id="Fill-20" fill="#246165" points="47.012214 15.8952126 44.86421 14.8427739 47.5076084 9.40967151 49.6556124 10.4621102"></polygon>
                        <polygon id="Fill-22" fill="#246165" points="54.2254915 25.2921409 52.8438848 23.3347848 61.894245 16.9017158 63.2758517 18.8590718"></polygon>
                        <g id="Group-26" transform="translate(56.7845, 33.7151)">
                            <mask id="mask-4" fill="white">
                                <use xlink:href="#path-3"></use>
                            </mask>
                            <g id="Clip-25"></g>
                            <polygon id="Fill-24" fill="#515151" mask="url(#mask-4)" points="7.15632805 2.57562633 0 2.39782116 0.0591604924 0 7.21548855 0.177805171"></polygon>
                        </g>
                        <polygon id="Fill-27" fill="#246165" points="62.2522855 53.5544076 53.4039076 48.5149953 54.5838308 46.428708 63.4322087 51.4681203"></polygon>
                        <polygon id="Fill-29" fill="#246165" points="1.40760141 53.1668643 0.557841613 50.92496 10.3282866 47.1958489 11.1780464 49.438053"></polygon>
                        <g id="Group-33" transform="translate(0, 33.2815)">
                            <mask id="mask-6" fill="white">
                                <use xlink:href="#path-5"></use>
                            </mask>
                            <g id="Clip-32"></g>
                            <polygon id="Fill-31" fill="#515151" mask="url(#mask-6)" points="7.68745781 2.79331023 -0.000119516146 2.39542244 0.123280905 0 7.81055944 0.397887793"></polygon>
                        </g>
                        <polygon id="Fill-34" fill="#246165" points="12.6860712 23.3668977 2.39154797 17.9640792 3.49946264 15.8385128 13.7939859 21.2413313"></polygon>
                        <path d="M29.6327736,15.3555604 C29.6028945,14.6929138 30.1108382,14.1292144 30.7711649,14.0992304 C31.4285037,14.066248 31.9902296,14.5759761 32.0230965,15.2386227 C32.0529755,15.8982709 31.5450319,16.4619703 30.8847052,16.4949527 L30.827935,16.4949527 C30.1944995,16.4949527 29.6656405,15.9972182 29.6327736,15.3555604 M35.387476,16.7648088 C34.736113,16.6538679 34.2998791,16.033199 34.4104315,15.382546 C34.520984,14.7288946 35.13948,14.2911281 35.790843,14.4020689 C36.442206,14.5130097 36.8784399,15.1336787 36.7678875,15.7843317 C36.6662988,16.3690199 36.1613431,16.7827992 35.5906535,16.7827992 C35.5249196,16.7827992 35.4561978,16.7768024 35.387476,16.7648088 M24.9656681,16.3660215 C24.7893817,15.7273621 25.1658576,15.0677139 25.8022811,14.8938066 C26.4387046,14.716901 27.0960434,15.0917011 27.2693418,15.7303605 C27.4456281,16.3690199 27.0721401,17.028668 26.4357167,17.2055737 C26.3281521,17.2355577 26.2205876,17.2505497 26.116011,17.2505497 C25.5931278,17.2505497 25.1120753,16.8997368 24.9656681,16.3660215 M39.7199363,18.0151419 C39.1074161,17.7632763 38.8175894,17.0616505 39.0685733,16.4499767 C39.3195572,15.8383029 40.0187267,15.5444596 40.628259,15.7963253 C41.2407793,16.048191 41.5306059,16.7498168 41.279622,17.3614905 C41.0883962,17.8262427 40.6431986,18.1050939 40.1740977,18.1050939 C40.0217146,18.1050939 39.8693315,18.0781083 39.7199363,18.0151419 M20.6302198,18.3839452 C20.3224658,17.7992571 20.5405827,17.0736441 21.1262119,16.7618104 C21.7058652,16.4499767 22.4319258,16.6718583 22.7426677,17.2565465 C23.0504218,17.8412347 22.8323048,18.5668477 22.2496636,18.8786814 C22.0703894,18.9746302 21.8761757,19.0196062 21.6879377,19.0196062 C21.2606675,19.0196062 20.8453489,18.7887293 20.6302198,18.3839452 M43.6729329,20.1889825 C43.1321223,19.8081856 43.0006545,19.0615838 43.3801183,18.5188733 C43.7595821,17.9761627 44.5035701,17.8442331 45.0443806,18.2220316 C45.5851912,18.6028285 45.716659,19.3524287 45.3371952,19.8951393 C45.1041387,20.2279618 44.7336387,20.4048674 44.3571628,20.4048674 C44.1211184,20.4048674 43.8820861,20.3359042 43.6729329,20.1889825 M16.841558,21.2983909 C16.4112999,20.7976579 16.471058,20.0390625 16.9700379,19.6072928 C17.4720057,19.1785215 18.2249574,19.2354911 18.6552155,19.7392224 C19.0854737,20.2429538 19.0287035,20.9985508 18.5267357,21.4303205 C18.299655,21.6252166 18.0247679,21.718167 17.7498807,21.718167 C17.4122476,21.718167 17.0776024,21.5772421 16.841558,21.2983909 M47.0612156,23.1723914 C46.616018,22.6836521 46.6488849,21.9250566 47.1359132,21.4782949 C47.6229415,21.0315332 48.3788811,21.0645156 48.8270667,21.5532549 C49.2722643,22.0419943 49.2364095,22.8005897 48.7523691,23.2473514 C48.5223005,23.4572395 48.2324738,23.5621835 47.9426472,23.5621835 C47.6199536,23.5621835 47.29726,23.4302539 47.0612156,23.1723914 M13.769993,24.9714319 C13.2411341,24.5726446 13.1335696,23.8230444 13.5309608,23.2923274 C13.9283519,22.7616105 14.6753279,22.6566664 15.2041868,23.0524554 C15.7330457,23.4512427 15.8376224,24.2038413 15.4432191,24.7315598 C15.2071747,25.0463919 14.8486263,25.211304 14.4870899,25.211304 C14.236106,25.211304 13.9851221,25.1333455 13.769993,24.9714319 M49.7264257,26.8244436 L49.7264257,26.8214452 C49.3947684,26.2487507 49.59197,25.5171409 50.1656475,25.1843184 C50.7363371,24.8544943 51.4683735,25.0523887 51.7970429,25.6280817 L51.7970429,25.6250833 C52.1257123,26.2007763 51.9285107,26.9323861 51.3578211,27.2652086 C51.1695831,27.373151 50.9634178,27.4241238 50.7632282,27.4241238 C50.3479096,27.4241238 49.9475305,27.2082389 49.7264257,26.8244436 M11.567908,29.2261627 C10.9673394,28.9533082 10.6984281,28.2456856 10.9703273,27.6400087 C11.2422265,27.0373301 11.9503597,26.767474 12.5509284,27.0403285 C13.1544849,27.313183 13.4204083,28.023804 13.1485091,28.6264825 C12.9513074,29.0702459 12.5150735,29.3341051 12.0579242,29.3341051 C11.8935895,29.3341051 11.7292548,29.2981243 11.567908,29.2261627 M51.5311195,30.9682336 C51.3339178,30.335571 51.6864905,29.6639292 52.3169381,29.4660348 C52.9473858,29.2681403 53.6166762,29.6219516 53.8138779,30.2546142 C54.0080916,30.8872768 53.655519,31.5589186 53.0250713,31.756813 C52.9085431,31.7927938 52.7890269,31.8107842 52.6695108,31.8107842 C52.1615672,31.8107842 51.6894784,31.4809602 51.5311195,30.9682336 M10.3518313,33.8646888 C9.70345616,33.7297608 9.28813756,33.0970982 9.41960532,32.4464452 C9.55406098,31.7987906 10.1845087,31.3820129 10.8328837,31.5139426 C11.4782709,31.6458722 11.8935895,32.2815332 11.7621218,32.9291878 C11.6455935,33.4958855 11.1466136,33.888676 10.5908636,33.888676 C10.5131781,33.888676 10.4325047,33.8796808 10.3518313,33.8646888 M52.382672,35.4058669 C52.3288898,34.7462187 52.8218939,34.1675273 53.4792327,34.1165545 C54.1365715,34.0625833 54.7132369,34.554321 54.7670191,35.2139692 C54.8208014,35.8736174 54.3307852,36.4523088 53.6704585,36.50628 C53.6375916,36.5092784 53.6077125,36.5092784 53.5748456,36.5092784 C52.9593374,36.5092784 52.4334664,36.0355311 52.382672,35.4058669 M8.95648025,37.4747635 C8.94452863,36.8121169 9.47039968,36.2664079 10.1307264,36.2544143 C10.7910531,36.2454191 11.3348516,36.7731377 11.3438153,37.4357842 C11.3557669,38.0984308 10.8298958,38.6441398 10.1695691,38.653135 L10.1516417,38.653135 C9.50027872,38.653135 8.96544396,38.1284148 8.95648025,37.4747635 M53.282031,41.2827325 C52.6276801,41.1927805 52.1705309,40.5871035 52.260168,39.9334522 C52.3498051,39.2768024 52.9533616,38.818047 53.6077125,38.9079991 C54.2590755,38.9979511 54.7162248,39.6036281 54.6265877,40.2602779 C54.5459143,40.859958 54.0319948,41.2947261 53.4433778,41.2947261 C53.3895956,41.2947261 53.3358133,41.2917277 53.282031,41.2827325 M9.58394002,42.4850913 C9.42856903,41.8404351 9.82596021,41.1927805 10.4683595,41.0368637 C11.1077709,40.8839452 11.7531581,41.2797341 11.9085291,41.9243903 C12.0609122,42.5690465 11.6665089,43.2167011 11.0241096,43.3696195 C10.9314846,43.3936067 10.8358717,43.4026019 10.7432466,43.4026019 C10.205424,43.4026019 9.71540778,43.0337986 9.58394002,42.4850913 M51.8597889,45.8612906 C51.2412928,45.6304138 50.9275629,44.9377832 51.1576315,44.3201126 C51.3877001,43.6964452 52.0779059,43.3816131 52.6964019,43.6154884 C53.314898,43.8463653 53.6286279,44.5389959 53.3955714,45.1566664 C53.2162971,45.639409 52.7621358,45.9392491 52.2780954,45.9392491 C52.1376639,45.9392491 51.9972325,45.9122635 51.8597889,45.8612906 M11.290033,47.2375566 C11.0002064,46.6408749 11.2452145,45.9242571 11.8368194,45.6304138 C12.4284243,45.3395689 13.1455212,45.5854378 13.4353478,46.1791211 C13.7281624,46.7728045 13.4831543,47.4924207 12.8915494,47.7832656 C12.7212389,47.8672208 12.5419646,47.9062 12.3656783,47.9062 C11.9234686,47.9062 11.4991863,47.6603312 11.290033,47.2375566 M49.469466,50.0140758 C48.9167038,49.6542677 48.7613328,48.9106643 49.1228691,48.3559602 C49.4844055,47.801256 50.2254056,47.6453392 50.7781678,48.0051473 C51.3309299,48.3679538 51.4863009,49.1115572 51.1247646,49.6662613 C50.894696,50.0200726 50.5122443,50.2089719 50.1238169,50.2089719 C49.8997241,50.2089719 49.6726434,50.1460055 49.469466,50.0140758 M13.9910979,51.4982842 C13.5787672,50.9825593 13.6624285,50.2269623 14.1763479,49.8101846 C14.6902674,49.3964053 15.4432191,49.4803605 15.8555498,49.9960854 C16.2708684,50.5118104 16.1872071,51.2674074 15.6732877,51.6841851 C15.4521828,51.8610908 15.1892473,51.945046 14.9263118,51.945046 C14.576727,51.945046 14.2271423,51.7921275 13.9910979,51.4982842 M46.2395421,53.5491904 C45.7794049,53.0754431 45.7883687,52.3138493 46.2604574,51.8520955 C46.7325462,51.3903418 47.4884858,51.399337 47.948623,51.8730844 C48.4117481,52.3468317 48.4027844,53.1054271 47.9306956,53.5671808 C47.6976391,53.7950593 47.3958608,53.9089985 47.0940826,53.9089985 C46.7863285,53.9089985 46.4755865,53.7890625 46.2395421,53.5491904 M17.5496912,55.0663813 L17.5496912,55.0663813 C17.0357717,54.6526019 16.9521104,53.8970049 17.367429,53.38128 C17.7797598,52.865555 18.5297236,52.7815998 19.0466309,53.1953791 C19.5605503,53.6121568 19.6442116,54.3647555 19.2318809,54.8834788 C18.9958365,55.1773221 18.6462518,55.3302405 18.2966671,55.3302405 C18.0337316,55.3302405 17.770796,55.2462853 17.5496912,55.0663813" id="Fill-36" fill="#246165"></path>
                    </g>
                </g>
            </g>
        </g>
    </g>
</svg>